<svg xmlns="http://www.w3.org/2000/svg" viewBox="0 0 400 150">
  <g fill-rule="evenodd"><path
    d="M331.3 52c-.3.3 0 .6.5.8.5.1 1-.3.8-.8-.3-.3-1-.4-1.3 0m3 4.1c-.2.2-.1.4.1.4s.3 0 .3-.2-.3-.3-.4-.2m-89.5.3c-.2.2-.1.9 0 1 .4.4.8.3 1 0 .1-.5-.7-1.3-1-1M222 57c-.5.4 0 1.4.6 1.2.4-.2.2-1.2-.2-1.2h-.4m88 .7V59c0 .8.4 1.1 1 .8.7-.3.7-1 0-1.3-.5-.1-.7-.3-.7-.6s-.3-.5-.3-.2m27.8.5l.2.2.2-.2c0-.1 0-.2-.2-.2 0 0-.2 0-.2.2m8 .2a4 4 0 01-1.3.7 6 6 0 00-1.4.8 2 2 0 01-.6.4c-.3 0-1.2 2.1-1.1 2.6.2.9 1.4.9 2.6 0 .5-.3 1.7-2 1.7-2.3l.5-.8c1-1.2.6-2.5-.4-1.4m17.1.6c-.1.3.2 1.1.4 1.1.6 0 1-.7.5-1.1-.3-.3-.8-.3-.9 0m-13.7.4c0 .3 0 .4.3.4.2 0 .3-.1.3-.4 0-.2 0-.3-.3-.3-.2 0-.3.1-.3.3m-140.2.1c-.2.2-.2.7 0 1 .4.2 1-.1 1-.6 0-.4-.5-.5-1-.4m117 .4c0 .5.3.6.6.3s.2-.6-.3-.6c-.2 0-.3.1-.3.3m-82.2.2c-1.2.7-1.9 2.6-1.2 3.2.3.3 2.2 1.2 2.9 1.4.4.1.4.3 0 .5-.3.1-.2.8.3.9.5 0 .7-.4.4-.9-.2-.2-.2-.3 0-.4 3-1 3.3-2.8.6-4.4-1.3-.7-2-.8-3-.3m31.2 0c0 .2 0 .3.2.3l.2-.2-.2-.2c-.1 0-.2 0-.2.2m19.6-.2c-.2.2-.1.9.1 1 .4.1.8-.3.8-.7 0-.3-.7-.5-.9-.3m-165.8.4c-.3.2-.1 1 .2 1.2.3.2.7 0 .7-.6 0-.5-.6-1-1-.6m192.7.5c-.3.1-.3.2-.1.5.3.4.8.4.8-.2 0-.5-.3-.7-.7-.3m14.2 0c-.4.2-.7.3-1 .2-.7 0-1.1.2-1.1.8 0 .4.3.6 1 .6.4 0 .5 0 .7.6l.3.7 1-.1 1.2-.2c.5-.2.4.2-.2.9-.6.6-.6 1.2-.2 1.8.5.5 1.2.6 1.7 0 .6-.7 1.5-.3 1 .4-.5 1 0 2 1 2 1 .1 1.5-1.3.6-2.3-.6-.6-.8-1.4-.5-1.6.4-.3.3-1.1-.2-1.7-.5-.6-.8-.7-2-.3-.7.2-.7.2-.6-.2 0-.2 0-.7-.2-1l-.2-.8h-1c-.6 0-1 0-1.3.2m-165.7.3v.3c0 .3.4.3.5.1.1-.2-.3-.5-.5-.4m118.4.3c-1.2.6-1.3 3.5-.2 4.8.3.3.2.3-.2.6-.8.7-.5 1.7.6 1.7h.5l-.6.7c-.8.9-.7 1.3.2 2.3l.7 1c0 .6 2 1.2 3 1 1-.3 1.4 0 1.6 1.2.2 1.2.3 1.3.8 1.5.5.3 1.3.2 2-.2.3-.2.7-.3 1-.2.6 0 1.2-.4 1-.9 0-.3-.5-.3-.6 0-.2.2-.5 0-.4-.5.2-.6-.2-1-1.4-1.1-1.1-.1-2-.7-2.3-1.7l-.5-1c-.2-.6-.2-.6.3-1 .8-.8.5-1.3-.6-1-.5.2-.7.2-1.3-.1-.6-.3-.9-.3-1.7-.2-1.2 0-1.2 0-.7-.8.3-.5.4-.7.8-.7.7 0 .8-.2.8-2.2-.1-2.6-.2-3.1-.4-3.2h-2.4m25.7 0c.1.3.5.3.5 0 0-.1-.1-.2-.3-.2-.1 0-.2 0-.2.2m-21.4.4l-.4.8c-.3.7-.1 1.1.5 1.2.7.1 1-.7.5-1.2-.3-.2-.3-.4-.2-.6.2-.3 0-.5-.2-.5 0 0-.2.1-.2.3m32 0c-.2.4.1.8.7.8.3 0 .5-.1.5-.3.1-.6-1-1.1-1.2-.5m-74.4 0c-.1.3.1.8.5 1 .5.1.9-.4.6-.8-.2-.4-.9-.4-1-.2m108 0c-.5.2-1.2.2-1.5.2-.7 0-2.1 1-2.1 1.5s.6 1 1.2 1 1.6 1 1.6 1.6c0 1 3.4 1.4 4 .4.9-1.2-1.1-5-2.3-4.8l-1 .2m-5.5.2c-.3.3 0 .9.5.9 1 0 1.3-.5.5-1-.6-.2-.8-.2-1 0m-118.5.2l-.7.2c-.7 0-.9.5-.4.9.4.3.7.3.8-.1 0-.2.3-.4.6-.4.5 0 .7-.8.2-.8-.2 0-.4 0-.5.2m-68 .2c-.3.4-.3.4 0 1 .6.7 1.6 0 1.2-.8-.3-.5-.7-.6-1.1-.2m157 .3c-.5.7-.3 1.1.4 1.1.8 0 1-.8.3-1.4-.3-.2-.3-.2-.7.3m45.3-.2c-.1.2 0 .5.2.5.1 0 .2-.1.2-.3 0-.4-.2-.5-.4-.2m-252.6.1c-.7.2-.5 1.1.2 1 .3 0 .4-.2.4-.5 0-.4-.1-.6-.6-.5m105 .1v.7c.2.5.8.6 1 .1.1-.7-.7-1.4-1-.8m88.2.2c.2.8-.6 1.4-1.2.8a9 9 0 00-4.4-.2c-.6.4-1 1.7-1 2.7 0 .9 0 1-.4 1.4-.6.5-.6.7-.2 1 .2.3.3.5.2 1.2 0 .8 0 .9.4 1.4 1.2 1.2 2.5.3 2.5-1.8 0-1 0-1.1.3-1.2.6-.3.7-.2 1 .5.4 1 .4 1.3 0 1.3s-.4 0-.3.7l-.1 1c-.2.4.2.9.7.7 1-.3 1-.3 1 .2 0 .3.1.7.4 1 1 1 1 1 .7 1.2-.2.2-.4.2-.6 0l-.8-.1-.5-.2-.3.1c-.1.2-.4.3-.8.3l-1.5.1c-.9.2-1 .2-1.6 0l-.5-.4-.5.5c-.6.5-.6.7-.2.8.4 0 .4.2 0 .8-.6.7-1 .5-1-.3 0-.4 0-.6-.3-.6l-.2.4c0 .5-.3.8-.8.8-.2 0-.6.2-.9.5-.4.5-.4.5-.7.2-.3-.5-1-.6-1.3-.1l-.6.4c-.5 0-.8.7-.6 1 .5.6-1.6.8-2 .3-.5-.5-.5-.9-.3-1l.2-.6c0-.3 0-.6.2-.6.2-.2.2-.4 0-.4s-.5-.3-.6-.7c-.4-.7-.6-.9-.8-.7-.2.1 0 2.5.3 3.1.2.5.2.6 0 .8-.4.2-.5 0-1.1-1l-1.1-1.6-.7-.7.2-1.2c.1-1.2 0-1.7-.3-1.7-.4 0-1 .3-1 .6 0 0-.1.4-.4.7l-.4 1c0 .4-.3.7-.8.7-.3 0-.4-.2-.4-.5 0-.6-.8-1.5-1.4-1.5-.6 0-.9.4-.7 1 .3.8-.4 2.8-.7 2.2-.1-.1-.1-.3 0-.4.1-.2-.4-1.1-.8-1.2-.7-.2-1.2.5-.5.9.5.2.4.7 0 .7-1.2 0-1.7-.2-2-.8-.3-.7-1-.5-1 .4 0 .7-.5.9-1 .5-.2-.2-.3-.3-.4-.2-.1.2.4 1.2.6 1.2l.1.2c0 .2-1.4.2-1.5 0l.1-.4.3-.8c0-.5.1-.7 1-1.3 1-.6 1.4-1.3 1-1.7-.5-.6-.5-2.2 0-2.4.3-.1.6-.4.7-.7.2-.5.3-.5.7-.4 1.1.5 3-1.2 2.7-2.3l-.2-.8c0-.1-.4-.2-1-.2s-.8 0-.8-.4-.6-.6-.8-.3c-.2.1-.1.3 0 .5.6.6 0 1-.9.7-.8-.3-1.4-.1-1.7.6-.3.8.1 1.7.9 1.7.5 0 .5.3-.1.6-.5.3-.6.3-1.1 0-1.2-.8-2 .7-1 1.7.4.4.4.5.3 1.1-.2.7 0 1.1.5 1.1.2 0 .6.5.6.8 0 0-1 .3-1.4.2-.1 0-.3.2-.3.4-.1.4-.6.3-.6-.2s-.6-1-1-.7l-.2.6c0 .6-.3.5-.9 0-.3-.4-.4-.7-.3-.9v-.6l.5-.7c.5-.5.6-1.6.2-3-.4-1.3-.3-1.5.5-1.5.4 0 .5 0 .5.3 0 .6 0 .8.3.8.5 0 .8-.7.5-1-.2-.3-.2-.4.1-.5a8 8 0 001-.7c.2-.3.8-.7 1.1-.8 1.7-.7 1.3-2.9-.5-2.9-1.4 0-4.3.4-4.5.5-.6.3-1 .9-1.3 1.6-.2.4-.5.7-.8.8a2 2 0 00-.7.6l-.3.5-.3-.6c-.7-1.7-2.3-1-2 .9.1 1.3.2 1.4 1 1.7.3.1.6.4.7.6l.2.5c.4.6.4.7 0 1-.4.3-.4.5 0 .5.2 0 .3 0 .3-.2 0-.3.5 0 .7.5.2.5 0 .8-.4.6l-2-.2c-.8 0-1.7-.2-1.9-.3l-.5-.1c-.2 0-.3.6 0 .8.3.2.1.6-.4.8-.2 0-.5.3-.6.6-.3.6-1.5 1.1-1.8.8-.2-.2-.2-.3 0-.5.6-.2.5-.7 0-1.2-.3-.2-.4-.5-.4-1 0-.6-.2-1-.8-1-.4 0-.5.4-.1 1.1.2.5.2.5-.2.8-.6.5-.5 1 .1 1.2.6.2.6.6 0 .8-.3.1-.4.3-.6 1.4 0 .4 0 .4.4.4 1 0 1.4.6.9 1.3l-.4.4-.6-.3c-.4-.2-.7-.6-.9-.9-.2-.5-.4-.6-.5-.2 0 .3-.2.3-.5.3-.8-.2-1.2.2-1 1 0 .7 0 .8-.3.8-.8-.1-1 .3-.3 1 .7.6.3 1.2-.6.8a6 6 0 00-.8-.2c-.2 0-.6-.3-.9-.6l-.5-.4.8.1c.9.1 1 0 1-1.1 0-1 .1-1.2 1.4-1.8 1-.6 1.3-1 .9-1.7-.4-.6-2 0-2 .7l-.3.9-.4.3v-.4c0-.4 0-.5-.8-.9-1-.4-1-.6-.5-.7.5-.2.7-1 .3-1.4-.4-.2-.4-.4 0-.7l.2-.4c0-.3-.6-.2-.8 0-.2.2-.3 0-.7-.3l-.6-.6.5-.4c.7-.5.3-1-.7-1s-2-1.7-1.2-2c.6-.4.4-2-.2-2-.4 0-.7 1-.6 1.6v.5c-.7 0-1 1-.7 1.5.3.3 0 .7-.4.6-.3 0-.4-.1-.4-.8 0-.9-.4-1.5-.8-1.5-.3 0-.6.7-.5 1.2.1.3 0 .3-.1.2-.2 0-.4.2-.7.5-.4.4-.6.5-1 .5-.3 0-.4 0-.4.2s0 .3.4.2h.5c0 .2.3.2.5.2.7 0 .6.2-.2 1-.5.6-.6.8-.4 1 .3.5.2.7-.2.7a1 1 0 00-.7.3c-.2.2-.5.4-.8.4-.6.2-.8.6-.4 1 .3.1.3.2 0 .4-.4.3-.6.3-.9 0l-.6-.3-.4-.4c0-.6-2-.5-2.2 0-.3.7.2 1.3 1.1 1.3 1 0 1.3.4.8 1.6l-.4 1c-.3 1-.6 1-.8.5-.3-.7-.2-1 .3-1.1.7-.3.1-1.5-.8-1.5-.4 0-.8-1-1-2.3l-.2-1.3v-.3c1 0 1.6-1.2 1.2-2-.1-.2 0-.4.4-.9.7-.6.7-.9-.2-.9-.6 0-.7 0-.7-.4-.1-.6-.9-1-1.4-.7-.6.4-.5.6 0 .9.7.4.9 1.4.3 2-.5.5-.5.9-.2 1.5.4.8-.8 1-1.8.3l-.5-.3.5-.5c.5-.5.6-1.2 0-1.6-1-1-2.4.2-1.7 1.4.3.6.3.7 0 .8l-.7.6c-.4.4-2.3 1.5-2.6 1.5V76c0-.5-.7-1.3-1-1.3-.3 0-.5.4-.6 1.2-.3 1.6-1.8 3.7-2.4 3.1l-.6-.2c-.3 0-.5 0-.5-.3 0-.4-.4-1.2-1.2-2.6l-.5-.8.6-.4c.6-.6.8-.6 1.1-.3.5.6 1 0 .7-.8-.3-.7-.3-2-.1-2.5.4-1-.3-1.7-1.3-1.3-.4.2-.5.2-.6 0-.2-.4-.4 0-.2.4.5 1.3 0 2.6-.8 1.8-.7-.7-1.6-.2-1.5.7.2.6-.3 1-.6.5a.8.8 0 01-.1-.6c.2-.7.1-1.5-.2-1.7-.4-.2-.8.2-.8.9 0 .4 0 .5-.3.4-.8-.2-1 .6-.4 1.5.3.3.4.8.4 1.2 0 .3 0 .6.2.7.2.1-.7 1-1 1-.4 0-.6.4-.4.6.2.2.3.1.8 0 .6-.2 1.3 0 1.6.5.3.5 0 .7-.7.3-1-.5-1.2-.4-1.4.6-.1.7-.1.8.3 1.1.9.6.4 1.4-.7 1-1-.3-1.2 0-1.1.9.1.8 0 1-.7.4-.5-.5-.7-1.7-.3-2.2.4-.4 0-.8-.3-.5-.6.5-1.4-.2-1-.9.3-.6.1-.8-.7-.7-.6.1-.8 0-1-.2a1 1 0 00-.6-.3c-.3 0-.3-.1-.2-.6 0-.5 0-.6-.4-.8-.5-.2-1.5.3-1.5.8l-.3.6c-.2.1-.3.5-.3 1 0 .9-.3 1.2-.8.8-.1-.2-.4-.3-.7-.4-.7 0-.6-.8.2-.8.6 0 1.4-.4 1-.6-.4-.2-.7-.6-.7-1 0-.6-2-3-2.6-3.1h-2a130.3 130.3 0 01-2.4.3c0 .2-.6.1-.7-.2-.2-.5-1-.1-1.8 1l-.3.4V74c.2-1.2-.7-2.1-1.4-1.5-.6.6.5 3 1.4 2.8h.2c0 .3-.5.4-1 .3l-.7-.2-.3.5c-.1.4-.3.5-.7.5-.4 0-.5.1-.8 1l-.6 1c-.2.1-.3.4-.3.7 0 .3 0 .5-.2.6-.4.1-.5.5-.2 1s.8.4 1.3-.2c.6-.7 1.4-.8 1.7-.1 0 .4.2.5.5.5.5 0 .5-.3.2-1-.2-.4-.2-.5 0-.6.5-.3.7 0 .7.4 0 .3.2.6.4.9.4.5.4 1.3 0 1.3l-.3.3c0 .2-.2.4-.4.4s-.4 0-.4.2c-.1.3-.2.3-.3 0-.2-.6-.8-.5-1 .2-.3 1.1-1.5 1.3-1.7.2-.1-.7-.4-1-.9-1-.2 0-.4 0-.4-.4 0-.2-.3-.4-.4-.4-.4 0-1.5-1-1.7-1.3 0-.3-.2-.4-.6-.3-.8.2-1.5-.6-1-1 .1-.2 0-.7-.4-1-.4 0-1.2 0-1.2.3 0 0-1.3 1-1.5 1l-.3-.5c-.4-.9-2.2-1.7-2.2-1l-.4.3c-.5.2-.6.7-.1.7.7 0 1.3 1 .6 1.2-1.6.3-1.9.3-1.6-.4v-.6c-.3-.3-.7-1.5-.7-2.2 0-.7-.3-.9-1-.8-.7.1-.8 0-1-.3-.3-.3-.6-.4-1.7-.5l-1.2-.1-.1.5c-.1.3-.1.6 0 .8 0 .4-.1.5-.6.4-.3 0-.4-.2-.3-.6.2-1.1-.3-1.6-1-1-.4.3-.5.4-.3.7.3.5.3.6-.2.5-.4-.1-.6 0-.8.3-.5.7 0 1.9.8 2 .5 0 .7.7.3 1.1l-.2.8a3 3 0 01-1 2c-.3.2-.5.5-.6.8 0 .4-.1.5-.5.5-.2 0-.4.1-.4.3l-.3.5-.4.5c0 .8-.3 1-1 .5-.7-.4-.8-.6-.3-1 .4-.4.4-.8 0-1.1a.7.7 0 010-1c.4-.4 0-.7-.7-.6-.5.1-.6 0-.5-.1 0-.3.5-.4 1.3-.3.4 0 .7-.3.7-.8 0-.2.2-.4.5-.6.8-.4 1-1.4.3-1.4l-.5-.4c-.3-.4-.4-.4-1 .2-.3.4-.4.4-1.6.3h-1.2l-1 1c-1.2 1.1-1.3 1.2-.9 1.9.3.5.3.7-.1.6-.3 0-.4-.2-.4-.6 0-.3-.2-.6-.3-.7-.2-.1-.3-.3-.3-.4l-.4-.9c-.3-.4-.4-.7-.3-1 .1-.6 0-.9-.6-.8a2 2 0 01-1-.1c-.7-.3-1.5 0-1.8.6-.3.4-.5.6-.8.6-.3 0-1.9-1.6-1.9-1.9 0-.8-1-1.2-1.6-.6-.4.4-.2.7.5 1.1.7.4 1.3 1.3 1 1.6-.2.2-1.3-.1-1.8-.6-.4-.3-1-.4-2.5-.4-.5 0-1.4.4-2 1-.4.3-.3.8.2 1.1.5.4.7 1.2.4 1.7-.1.2-1.4.5-1.4.3 0-.4.5-1 .7-1 .3-.1.4-.2.2-.4s-.3-.2-.3 0c-.1.3-.6.1-.8-.4-.2-.4-.3-.5-.7-.4l-.4-.1-.3-.6c-.3-.6-.7-.2-.7.6 0 .9-.2.9-1-.1-.4-.4-.6-.7-.6-1.2 0-.8-.6-1-.7-.2 0 .5-.1.5-.7.5-.9 0-1.1-.3-.7-.9 1-1.2 0-1.7-1.3-.8-.8.5-1.2.7-1.7.7-.8 0-1-.3-.3-.4 1.2-.2 1.4-1.6.4-2-1.4-.5-2.5.7-1.5 1.8l.5.4-.6.3c-1 .4-1.1.9-.7 1.9l.1 1 .1.7c.2.3.2.4 0 .6-.4.3-.8.2-.8-.3 0-.2-.2-.4-.3-.4-.2 0-.3.1-.2.3 0 .3-.1.5-.3.6-.4.2-.6 0-.4-.6 0-.5-.4-.8-1.2-.7-.4 0-.5.1-.6.5 0 .6-.4.7-1 .2-.3-.4-.5-.4-1-.4-.7.1-.9 0-1.1-.2-.2-.2-.5-.3-.7-.3-.8 0-1.3-1-1.2-2 0-.8 0-.9-.4-1.2-.3-.3-.5-.7-.7-1.3-.4-1.7-2-2.2-1.7-.5.2.6-.2.8-.5.4-.3-.3-.3-.5-.2-.9.3-.6 0-1.3-.4-1.3s-.8.6-.7 1c.1.4 0 .5-.3.4-.8 0-1 .4-.4 1.5l.4 1v.7c.3.3.2.4-.2 1-.3.2-.6.7-.8 1-.4.5-.7.5-1.3-.4-.6-.8-1.2-1-1.6-.6-.5.3-.6.3-1-.7-.4-.8-.5-.8-1.1-.8-.5 0-.7-.1-.7-.4-.2-.9-1.2-1.2-1.8-.6-.3.3-.4.3-1.4.1-1-.2-1-.2-1.3 0-.5.5 0 2.2.5 2 .6-.2 2.1 1.4 2.1 2.3l.2.4c.3.3.2.8-.2.7-.1 0-.3-.3-.3-.6 0-.6-1.9-2.4-2.4-2.3-.5.2-2-.7-2.3-1.2-.3-.5-.7-.7-.8-.2 0 .2-.3.3-.8.4-1.9.3-1.9.3-2.3.8a2 2 0 00-.3.9c0 .2-.2.3-.5.4-.5 0-.7.5-.5.7.3.3 1.4.3 1.7 0 .3-.2.3-.2.4 0 .1.2.2.3.4.1h.8c.3 0 1.2 0 2-.2 1.6-.3 2.5-.3 2.6.2l.5.6c.5.5.4 1-.4 1-.5 0-.7 0-.8.3 0 .3 0 .3.3.1.3-.2.4-.1.8.2l.7.3.3.5c0 .4.1.5.5.5.5 0 .7.5.3.9-.2.2-.4.3-.9.2-.6-.1-1 .2-1 .5l-.3 1.1-.2.6-.3.4c-.7.3-.5 1.4.2 1.3h.9c.2.1.5 0 .8 0 1-.6.3.6-1 1.6l-1 1c0 .7-.2.9-.6.6-.3-.4-.8-.4-1-.2 0 .3-.3.2-.4-.2 0-.3-.1-.3-.6.2-.6.7-.6.7 0 1.3.4.7.2.9-1 .9-.5 0-.8 0-.8.2 0 .3.7 1 1 1 .4 0 .8.5 1 1.4 0 .3.4.9.7 1.2.5.4.6.7.6 1.3.1 1 1.1 2 1.7 1.6.3-.2.4-.2.4 0 .5 1.5 2.7 2.2 3.7 1.2l.6-.2.8-.3c.5-.3 2.2-.6 3.3-.6.7 0 .7 0 1-.7.3-1.2 1-1.6 1.1-.8.1.4.5.4 1.1 0 .4-.4.8-.1.8.5 0 1 .3 1.3 1 .8.6-.3.5 1 0 1.6-.6.4 0 2 .5 2 .7 0 1-.6 1-1.8v-1.2l.5.1c.3 0 .7.2.8.3l.3.2.5.5c.2.4.3.4 1 .3l1-.2.6-.3c.4-.4.6-.2.6.5 0 .4.4.2.5-.2 0-.2 0-.5-.3-.6-.4-.3-.4-.8 0-.8s.6.3 1 1.2c.4.7.6.8 1.3 1 .2.1.2.2-.4.5-.7.3-.8.3-1 0l-.7-.2c-.3 0-.6-.2-.8-.4-.3-.3-.4-.3-.4 0l.1.2 1.6 1.3a11 11 0 001.7 1.2c.3 0 1-.5 1.2-.9.3-.6.3-.5-.3-1l-.5-.5.7-.8c.6-.5 1.5-1 2-1.1v.3c0 .5.3.7 1.2.8 1 .1 1-.1.4-1-.4-.6-.5-.6-1-.5-.7 0-1.2-1-.8-1.5.3-.3.2-.8-.2-.8l-.6-.1c-.4-.3 0-.8.6-.7.3 0 .5-.1.7-.5.4-.6.7-.7.7-.2 0 .5 0 .7.3 1 .3.3 1.2-.2 1.2-.8 0-.3 0-.4 1.1-.4.2 0 .3.1.3.5s.1.5.4.5c.4.1.5.2.1.6-.6.6.8 1.6 1.4 1 .4-.3.4-.3 1.2.6l.8 1-.3.8c-.4.8-.7 1-1.2.3-.9-1-1.2.8-.4 2.1.3.4 1.7.2 2-.3l.3-.4.4.4c.5.5 1 .6 1.2.3.1-.3.5-.2 1 .4.6.6 1 .4 1-.6 0-.5 0-.6.3-.5.8.3 1-.8.2-1.6-.3-.3-.4-.7-.3-.9 0-.2 0-.5-.2-.7-.3-.3-.3-.5-.1-.8.2-.4.7-.1 1.3.8.2.5.5.7.8.8.6.2.8-.1.6-.6l-.2-.3 1.2-.1c2.2 0 2.4 0 2.5-.4 0-.1 0-.3-.2-.5-.4-.3-.5-1.8-.1-2.2.3-.3.6 0 1 1 .5 1.3 1.2 1.5 1.7.6.3-.5.5-.5.8 0 .2.4.2.4-.3 1l-.5.7-.3 1c-.3.6-.4.8-.2 1.2.6 1.4 2 .3 1.6-1.2-.3-.8.5-1.3 1-.7h.5c.1-.2.1-.3-.2-.5-.2-.2-.4-.4-.4-.6a1 1 0 00-.2-.5c-.2-.3-.3-.3 0-.8l.3-1c0-.5.3-.9.8-1.4 1-.8 1-.9.3-1.5-.7-.5-.5-.8.3-.7.6.2.7.2.7.6 0 .6.7.4.7-.1 0-1.2 0-1.4.3-1.7.2-.3.3-.3.5-.2.3.5.3.9 0 1.2-.2.3.3 1.1.9 1.1l.7.3c.3.2.5.2.6 0 .2-.1.6-.2.6 0l-.3.3c-.2 0-.4.3-.5.5-.1.3-.4.7-.7.9l-.4.4.4.3c.5.4.8.4 1.3 0 .3-.3.5-.3.6-.2l.6.2c.5 0 .7.3.8 1.2 0 1 .2 1.2 1 1 1.3-.2 1.9-1.5.7-1.5-.4 0-1.1-1-1.1-1.7 0-.2-.2-.2-.8-.1l-.7-.1c0-.3.6-1 .8-1 .2 0 .3-.1.4-.3l.4-.4h.8c.5 0 .6.1.6.5 0 .5.5.9 1 .9s.7.7.6 1.8c-.2 1.5 1 2.9 2.4 2.9.5 0 .5 0 .4.5-.4 1.5 1.7 1.7 2.5.2.8-1.6 2.7-1.8 3-.4.2.8.5 1 1.6.7 1-.3 1.4-.2 2.3.5.6.5 1 .5 1 0 0-.4-.8-2.3-1.1-2.4-.2-.1-.9-1.4-.9-1.7 0-.2-1-1.1-1.2-1V99.5c-.4.5-.6.4-.6-.3v-.6l-.8-.1c-.9-.1-1.4-.7-.8-.9l.2-.3.5-.7.4-.5.6.6c1 .9 2 .5 3.3-1.3.1-.2.3-.2.5-.2.5.3 1.5.2 2 0 .7-.2 1 0 1 .6 0 .5.5 1.1 1 1.3.4 0 .5.6.2.8l-.5-.1c-1-.8-1.9-.2-1.7 1.1 0 .6 0 .8-.2.8-.1 0-.2.1-.2.3 0 .4.4.3.5 0 .1-.3.2-.3.5-.1.8.3.5 1-.5 1-.9.2-1.3.9-1 1.5.7 1.4 1.9 1.4 2.3 0l.6-1c.3 0 .4-.2.4-.5 0-.7.6-1.1 1.6-1 .7.1 1.7-.5 1.7-1 0-.3.1-.3.5 0 .7.4 1.3-.8.7-1.4-.4-.5-.8-.3-.8.3l-.2.6c-.4.2-.2-1.1.3-1.6l.4-.9c0-.4.6-1.2 1-1.2.3 0 .4.5.3.9-.3.5 0 1.3.3 1 .3-.2.4 0 .6.6.1.4.3.5.6.5.6 0 .6-.5 0-1.5-.3-.8-.3-1-.2-1.7.3-1.1 0-1.6-.6-1-.3.4-.7.4-.8 0-.1-.2.2-.5.7-.5l.4-.1c.1-2.1.3-2.4 1-2.1.6.2.6.7 0 .9-.4.2-.4.3 0 .9l.2.6c-.1.5 0 .6.3.6.2 0 .3 0 .3-.2 0-.4.7-.3 1.2 0 .2.2.3.5.3.7 0 .4-.5.5-.5 0 0-.2 0-.3-.4-.3s-.6.4-.2.6c.3.2.1.7-.2.8-.4.1-.4.3 0 .6.1.2.1.3-.2.9l-.3.7.4.3.4.5.1 1c.2 1-.3 2-1 1.8-1-.2-2 .6-1.6 1.5 0 .2-.5.8-.8.8l-.3-.7c0-.6-.7-1.3-1.1-1.3-.2 0-.3-.2-.4-.5-.1-.7-.2-.7-.7-.3-.3.2-.7.3-1.2.3-.6 0-1.4.2-1.8.4-.2.2-.3 1.5 0 1.8.6 1 2.3 1.3 2.7.6.2-.3.2-.3.4 0 .1.4.3.4.8.4.7 0 1.6.5 1.6 1 0 .4.9 1.6 1.4 2 1.7 1 3.4-.6 2.3-2.3-.5-.7-.5-1 0-.8l.9.2c1 .1 2 .6 2 1 .3.6.3.6-.3.8-.3.2-.5.3-.5.6l-.3 1.4c-.2.6-.3 1-.2 1.1l.3.7c.3 1.4 3 2.4 3.6 1.3.6-1 0-3.2-1-4l-.4-.5h.8c.4 0 1-.1 1.2-.3.5-.2.5-.2.5.2 0 1 1.2 1.5 1.9 1 .3-.4.6-2.1.3-2.1s-.5-.3-.4-.6l.4-.8c.1-.4.4-.7 1-1 .5-.2.7-.4.7-.7 0-.4.1-.5.6-.2.4.2.9 0 .9-.6 0-.2.1-.3.4-.4 1-.1 1.3-.4 1.3-1 0-.9-1.4-.6-2 .5l-1 .9-.9.6c-.2.3-1.3 0-1.3-.5 0-.2.2-.3.4 0l.4.1c.5 0 .3-.4-.1-.4l-.4-.2c0-.4-1-1.7-1.5-1.9-1-.3-1.8.4-1.8 1.6 0 .9-.3.8-1.6-.7s-1.5-2.2-.4-1.3c.4.3.5.3 1.1 0 .4 0 .8-.2 1-.1.3.1.9-.3.9-.6 0-.6.5-1.1 1-1 .3 0 .5.2.5.3 0 .4 1.2 1.7 1.5 1.7.4 0 .4-.6.1-1.3v-.6c.3-.4 0-.8-.5-.8-.4 0-.4-.2 0-.6.3-.2.4-.2 1 0 .8.3 1 1.1.3 1.5-.5.4-.5.7 0 1 .4.3 1.6.3 1.6 0l.3-.4.4-.3-.5-.5c-.8-.7-.4-1 .7-.5.8.4 2 .5 2.2.2.2-.4 1.7 0 2 .5.5 1 1.3 2 1.8 2.4.5.4.6.5.5 1-.1.6.7 1.1 1.3.7l.8-.2c.6 0 1.3-.6 1.3-1.1 0-.5.3-.6.7 0 .4.4 1 .5 1.8 0 .8-.4 1.2-.3.9.2-.6 1 .3 2.2 1.4 1.8 1.1-.4 1-2.2-.2-2.2-.2 0-.3 0-.3-.2 0-.3 1-1.5 1.2-1.5 0 0 .2 0 .1-.3 0-.1-.2-.3-.4-.3-.5 0-1.7-.9-1.7-1.4-.1-.6-.6-.5-.6.1 0 .5-1 1.2-1.3 1-.4-.3.2-1.7.7-1.7l.6-.4.4-.3.8.6 1.1.5.5.1c.7 1 1 0 .4-1.4-.4-.8-.5-1.9-.3-2.3V92c-.3-.3-.3-.4 0-.6.3-.4.7-.2.7.4 0 .8 0 1 .3.8.4-.2 3-.2 3 0 0 .1-.7.6-1 .6-.5 0-1.5.9-1.5 1.2 0 .2.2.3.5.3.6 0 .7.2.3.7l-.3.6c0 .3.8.7 1 .5 0 0 .3-.2.7-.2l.8-.1c.2-.4 1-.2 1.4.4.5.9 1.6 1.2 1.6.5 0-.4.8-.3.8 0v.5c.1.5 1.2.6 1.6.2.5-.4.7-.2.5.5-.2.4-.3.5-.7.6-.7 0-1 .5-.7.8h.6c.3 0 1.3.3 1.5.5.3.2-.6 1.7-.9 1.6-2-.6-2.2-.6-3.5.4-.8.6-.8.8.1 2.7l-.5.1c-.4 0-.8.1-1.2.6-.4.3-.8.6-1 .6-.9.3-.9 1.1 0 1.1.4 0 .4.1.6.7.4 1.3 1.3 2 2.5 2s1.6-.7 1.3-2.3l-.1-1.2h.8c.7.2 1 .2 1.5 0 .7-.4.9-.3.7.6-.1.5-.2.6-.7.8-.8.3-.8.8 0 .8l.6.2c.3.2.4 0 .3-.4 0-.5 0-.6.4-.6 1.4-.2 2-2.2.6-2.2-.2 0-.3-.1-.2-.7.2-1 .3-1.2.7-1.3.7-.3 1-.2 1 .2 0 .5.2.7.6.4.2 0 .2-.2 0-.6-.1-.5-.1-.5 0-.4.4.3 1 .1 1-.3.1-.1 0-.3-.2-.5-.2-.3-.3-.3 0-.4.6-.2.9-.1.9.3 0 .3 0 .4.3.4.2 0 .3-.2.3-.7v-.7h-.9l-.8.1-.2-.7a9 9 0 00-.3-1c-.1-.2 0-.3.2-.3.3 0 .4-.1.4-.4 0-.4-.2-.6-1.1-1.3-.3-.2-.6-.5-.6-.7 0-.4.2-.3.5 0 .2.4.3.4.8.2.7-.2 1.3 0 1.6.7l.6.9c.3.2.3.4.1.8-.2.5 0 1 .6 1.2.4.2.7-.2.6-.8-.2-1 .7-2 1.4-1.6.3.2.5 0 .3-.3l-.7-.2c-.4 0-.7-.2-1.2-.7-.7-.8-.7-.8 0-.8s1.5-.8 1.7-1.7c0-.5 1-1.3 1.6-1.3.3 0 1.4.5 1.5.7l.7.4c.8.3.7.8-.3 1-.4 0-.5 0-.6-.4-.3-.6-1-.5-1 .1 0 .3 0 .6.2.6s.3.3.3.6c0 .6.6 2.1 1 2.2.3.2.4 0 .2-.5-.2-.3-.2-.4.3-.6.5-.3.6-.4.5-.8 0-.6 0-.6.5-.7.6 0 .9 0 .9.6s.8.5.9-.1c.1-.7 1.6-.8 2.2-.1.6.5 1.5.3 1.7-.5 0-.3.1-.4.3-.4.2 0 .2 0 .2-.2l-.2-.2c-.3 0-1.9-1.6-1.9-1.9 0-.1 0-.2.2 0l1.3.2c1.6 0 1.6 0 1.6 1.6v1.3h.6c.6 0 .9-.5.5-1-.1-.2-.1-.3.2-.4.4-.2.8 0 .8.4 0 .1.1.3.3.3.3.1.5.5 1.2 2 .6 1.6 1.8 1.4 2.2-.2.2-1.1.4-1.2 1.1-.5.3.3.6.5.8.4.7-.2 1.7 1.3 1.7 2.4 0 1 .7 2.5 1.3 2.6.3 0 .8.3 1.3.5.7.4.7.4 1 .1l1.3-1.8c.1-.4.1-.4.6-.1.5.3 1 .2 1 0s-.1-.3-.4-.3c-.2 0-.4-.3-.4-.5-.2-.4-.4-.4-.6 0-.2.7-1.3-.7-1.1-1.4 0-.1 0-.4-.2-.6-.2-.2-.2-.3.2-.8.6-.8 1.1-.9 1-.2-.3 1 .5 2.3 1 1.8.2-.2.2-.3 0-.9-.1-.5-.1-.6.1-.8.4-.3.4-1.2 0-1.4-.4 0-.5-.4-.2-.6h.3c.1.2.4.3.5.3.2 0 .5.1.7.3.2.2.5.3.7.3.2 0 .8 1.2.8 1.7 0 .3.7.6 1 .4.2-.2.2-.5-.2-.8-.5-.3-.3-1 .3-1 .3 0 .6 0 .8-.2.2-.2.2-.2.3.4 0 .8 1 1 1.3.4.2-.4.8-.5 1-.2.2.2.2.3-.1.6-.6.5-.5 1.1 0 1.2.7 0 .8.3.4 1-.6.9-.3 1.9.6 1.9.9 0 1.1-2 .4-2.5-.2-.1-.4-.4-.4-.7l-.2-.9c-.2-.5.4-.3.7.2.2.6.6.8 1.1.6l.8-.2 1.2-.1c1-.2 1 0 .1.7-2.4 1.7-1 5.3 1.6 4 .6-.2.6-.2 1.4.2 1 .4 1.2.3 2.1-.5.9-.6.8-1 0-1.8-.8-1-.8-1.2 0-1.2.7 0 1-.3 1.3-1 .1-.4.4-1 .7-1.2.2-.2.5-.7.5-1 .2-.8.8-1.2 1.4-1 .3.1.6 0 1-.1.7-.2.7-.2 1.2.2.4.4.3 1-.2.8-.2 0-.3 0-.4.2v.2c.2 0 .4.2.6.4.1.2.3.3.5.2.2 0 .5 0 .7.2.3.3.3.3 1 0l.6-.4.3.6c.4.8 1 .5.8-.4 0-.8.3-1.2 1-1.2.6 0 .8.4.3.6-.2 0-.4.3-.5.5l-.3 1-.2.8c0 .3 0 .3-.5.3-1.1-.1-2 1.3-1.3 2s1.8.2 2-.8c.1-.6.6-.8.9-.4 0 .1.2.2.3.1l.5.1c.5.3.6-.1.1-.7s-.3-1.1.4-1c1.3.4 3.4 3.2 2.6 3.7-.6.3-.8 1.4-.4 2 .7 1.3 2.7 1 2.7-.4l.1-.9-.1-.2c-.5 0-.7-.5-.4-.9l.2-.6c0-.8.1-1 .8-.3.8.8 1.6.2 1-.7-.5-.6-.5-.7-.1-.7.2 0 .3-.1.3-.4 0-.5.3-.7 1-.8.5 0 .7-.5.2-.6-.6-.1-.5-1.3.1-1.5.7-.1 1-.3 1-.7.2-.6.6-.8 1.3-.5l1 .3c.3 0 .6.3.8.6.5 1 1.5.6 1.5-.4 0-.4-.9-1.3-1.4-1.3-.3 0-.1-.5.3-.7.4-.2.5-.1 1 .3.3.3.5.4.8.3.6-.1.5-.5-.1-1-.5-.4-.5-.4-.3-.7l.5-.8c0-.2.5-.6.8-.8.9-.4 1-1.3.3-2.2-.9-1.1-.6-1.7.7-1.4 1.1.2 1.2.2.8.8-.4.7-.5 1.6-.2 2 .4.7.3.8-.3 1-.7 0-1 .3-1 1 0 .5.3.7 1.3 1l.4.2.8 1 .9 1.2c.3.8.7.5 1.2-.7.6-1.3 1-1.6 2.5-1.8 1.4-.2 1.8-.4 1.8-1 0-.3.1-.4.3-.4l.8-.3.6-.4v.6c0 .4 0 .7.4.9.3.2.4.4.4.7 0 .5 0 .5.4.4.5 0 .9.6.5 1l-.2.4c0 .2-.2.4-.5.5-.7.2-.6.5.4 1l1 .6.8.4h.7l-.4.4-.4.5c0 .2.9.2 1-.1.1-.4.4-.3.8 0 .2.3.3.5.1.7-.3.6.3 1 .8.5 0-.1.3 0 .6.3.4.5.5.5.8.3 1-.6 1.1-2 .3-2-.7 0-1-.6-.9-1.4.2-.4.1-.8 0-1.2-.2-.3-.3-.9-.3-1.3l-.1-.7.5.1c.3 0 .5.2.5.2v.7a2 2 0 000 1.1l.1 1.1c0 .5 0 .7.3.7l.2-.2s.3-.3.7-.4c.4-.2.7-.4.7-.7.2-.7 1.4-1 1.7-.3 0 .3-.6 1.6-1 1.7-.4 0-.3.6.1.7.9.1 2-1.2 1.9-2-.1-.2 0-.5.1-.6l.5-.8c0-.3.2-.4.5-.4.6 0 1.5-.8 1.5-1.5 0-.3-.9-1.2-1.2-1.2-.4 0-.6-.3-.3-.4 2.5-.6 4-1.8 3-2.5-.6-.4-.5-1.2 0-1.2.3 0 .5-.2.6-.4.2-.4 1.4-1 1.8-1 .3 0 .4.1.3.9 0 .8 0 1 .7 1.6l.8 1s.3.1.4 0h.7l.8-.6.4-.5 1 .3a9 9 0 002.8.7c.2-.1 1.2-1.6 1.1-1.7-.3-.3.3-.7.9-.7 1 0 1.3-.5.8-1.3l-.6-1c-.2-.4-1.1-.5-1.6 0-.9.8-1.7.7-1.3-.2.5-.9 0-1-1.1-.3-.7.4-1 .5-1.5.4-.7 0-.8 0-1.2-1-.2-.3-.5-.3-.8 0-.2.3-.5.4-1.2.4-.8 0-1.1-.2-.5-.4.4-.1.4-.9 0-1.1-.2 0-.5-.1-.8 0-.4 0-.4 0-.3-.3.3-.7.3-.9 0-1.2l-.6-.3c-.3 0-1.8-1.3-1.6-1.5l.5.1c.2.1.5.2.7.1.3 0 .4 0 .5.3 0 .3.1.4.3.4.5 0 .6-.6.1-.7-.4-.1-.4-.6 0-1 .5-.5 1-.5 1.2 0 .2.3.2.3.5-.4.6-1 .3-1.3-1.8-1.2h-1.5v-.4c0-.3.1-.5.6-.7.6-.3.6-.3.6-1 0-.8-.6-1.2-1.2-.9-.7.4-2.8 0-3.6-.6-.4-.4-.3-1.1.2-1.2.2 0 .4-.2.5-.4.3-.6 2.3-.6 2.4 0 .2.5.5.5 1.5 0l.9-.4v.9c0 1.7 1.5 2.4 1.8.8l.7-1.4.7-1.3.4-.7-.5-.5c-.3-.5-.5-.6-.8-.5-.3 0-.5 0-.8-.3-.6-.7-1.7-.3-1.9.7-.1.4-.2.5-.5.6l-1 .2c-.3.2-.4.1-.8-.2-.4-.4-.4-.4-.7-.1-.8.7-1.6-.7-.8-1.5.5-.5.5-.6.2-.9-.4-.3-1 .2-.8.7 0 .2 0 .3-.3.3a1 1 0 00-.7.3c-.3.3-.4.3-.8.2-.6-.2-1.1 0-1.4.8l-.7.8c-.7.3-.7.4-.6 1.8 0 1.5-.3 1.8-1.2 1-.3-.5-.5-.5-.5-.3-.2.5 0 1 .5 1.1.6 0 .7.5.1.6-1 .1-1 .2-1 .7 0 .7-.3.6-.9-.3-.4-.7-.6-.9-1-.9-.8 0-1.3-.3-1-.7.2-.2.2-.3 0-.4-.2 0-.4 0-.5.2l-.8.5c-.6.3-.8.7-.7 1.2.2.3-.4 1.7-.6 1.7-.3 0-.9.8-.9 1.1 0 .3 0 .4-.3.4-.8 0-.9-.2-.6-1 .2-.8.1-1.2-.3-.8-.3.3-1.8 0-1.8-.3l.4-.2c.5 0 .9-.4.7-.7-.2-.3.4-.3 1 0 .3.3.4.5.4.8 0 .5.2.5.6.1.3-.3.3-.4 0-.8-.4-.6-.3-2.1.2-2 .6.1 1.1-.2 1-.6 0-.2 0-.4.3-.6.8-.7.6-1.5-.3-1.5-.7 0-1 .3-.9 1 0 .6 0 .6-.5.6-.4 0-.6.1-.7.4-.3.5-1.2.4-1.5-.2-.4-.7-1-.6-1.2.1-.1.7-.3.9-1.2 1-.3 0-.8.3-1 .6-.6.5-.9.6-1.7.2-.6-.2-.8-.2-1 .4 0 .2-.2.4-.3.4-.3 0-.3-.1 0-.8.1-.6.1-.6-.2-.9-.5-.4-.5-.4 0-.8.4-.5.4-.8-.2-1.3l-.3-.6v-.5c-.1-.4-.9-.4-.9 0 0 .8-1.8 2.1-2.2 1.6-.2-.3-.6-.3-.7 0-.2.4.6 4.2.8 4.4.3.3.3.8 0 1l-.2.6-.3.6c-.4.4-.1 1.3.4 1.2l.4.1c0 .1.2.4.5.6.7.7.4 1.2-.4.7-.2-.2-.5-.2-.7-.2-.2 0-.2 0-.2-.3.2-.6-.1-.9-.8-.6-.6.1-.6.1-1-.4-.4-.7-1-.8-1-.1-.1.2-.2.3-.5.3-.5 0-.6-.3-.2-.8V78c-.2-.2-.1-.3.1-.6s.3-.7.3-1l.3-.9.2-1.3c0-.7.1-1 .5-1.3.8-.7.5-1.2-1-1.6a9 9 0 01-2.2-.7c-1-.6-1.5-.6-2 .2-.6.7-.6.7-1-.1-.5-1-1.7-1.2-2.2-.2-.2.5-.3.5-1 .5-1.1 0-2 1.3-1.2 1.8.3.1.2.3-.3.6-.8.4-1.7-.4-1.7-1.4 0-.6-.1-.7-.5-.9-.5-.2-.4-.5.3-.5.5 0 .7 0 1-.3.6-.6 0-1-1-.6-.3.2-.4.1-.3-.2.4-1.2.4-1.6-.4-2.2-.8-.7-.8-1.2-.1-1.2.2 0 .6-.1.8-.3.5-.2.6 0 .4.5-.6 1.1-.1 1.7 1.9 2.4 1.5.5 2.7.6 3.7.3l.6-.2v-1.1c0-1.2-.3-2-1.1-2.4-.5-.3-.5-.4-.4-1 .1-.7-.2-.9-.9-.4-.1.1-.7.3-1.2.3-.8 0-1 .2-1.6.6-.8.7-.8.7-1-.3 0-.7 0-.8.4-1 .9-.5.7-1-.3-1-.8 0-.8.1-.8.4m-134.8 0v.4c.1.1.4-.1.4-.4 0-.3-.3-.3-.4 0m121.7.2c-.4.6-.4 1.6 0 1.7 0 0 .2 0 .3-.3 0-.2.3-.3.7-.4 1.1 0 .9-1-.4-1.3-.3-.1-.4 0-.6.3m-190.9 0c-.5.4 0 1.3.5.9.4-.3.4-1.2 0-1.2l-.5.2m121.3 0c-.4.2-.7.5-1 1-.2.4-.7.9-1 1-.8.6-1 1.2-.6 1.7.3.3.5.3 1.7 0 .3 0 .6 0 1.1.4 2.3 1.7 5.7-.2 4-2.3-1-1.5-2.8-2.2-4.2-1.7m100.9.2c-1.2.5-.9 2 .5 2.4 1 .1.9 2.3 0 2.3-.3 0-.6 0-.7.2-.1.2.4.7.7.5l.7.5c1 .9 3 .7 3.6-.3.2-.5.2-.4-.6-1.5-.4-.5-.4-.6-.3-.8.4-.4.6-.3 1 .4.3.7.3.8 1.2.7 1.9 0 2.2-2 .4-2.7l-1-.6-.6-.4-.7-.2c-.8-.4-2-.4-2 0-.1.4-.6.6-.6.4 0-.3-.8-1-1-1l-.6.1m-150.4.2c-.4.3-.1.8.5.8.5 0 .6-.1.6-.5s-.6-.6-1-.3m142.6.2c-1.2.7-.8 2.1.7 2.1l.5.2c.2.3.6.2.7-.2 0-.3 0-.4-.2-.6-.2-.1-.4-.4-.4-.6 0-.7-.7-1.2-1.3-.9m-147.6.1c-.3.4.4 1 .8.7.2-.2 0-.7-.3-.8l-.5.1m91.2 0c-.2.2-.1.5.2.5.4 0 .6-.3.3-.5s-.4-.2-.5 0m20.8.1c-.2.4 0 .8.4.8s.6-.5.3-.8c-.2-.3-.6-.3-.7 0m-147.7 0c-.2.3 0 .8.3.8.2 0 .3-.1.3-.4 0-.4-.4-.6-.6-.4m14.1.1c.1.3.5.4.5.1 0-.1-.1-.3-.3-.3l-.2.2m62.5.3c0 .1 0 .2.2.2l.2-.3-.2-.2c-.1 0-.2.1-.2.3m110.3.1c0 .2.1.3.2.3 0 0 .2-.1.2-.3l-.2-.2s-.2 0-.2.2m-157.3.4c-.7.3-1.1 1.4-1 3 0 .7 0 .7-1 1.7-1.5 1.4-1.6 2.3-.2 2.3.4 0 .5.2.1.5-1 .9-.9 1.5.7 3 1.4 1.3 2.2 1.6 3.3 1.3.7-.3.8-.3 1.1 0 .2.2.4.2.7 0 .3-.1.4-.7 0-.8l-.3-1c0-.5-.2-1-.3-1.1-.3-.4-.3-.8 0-1 .6-.3.2-.8-.6-.8-1.2 0-2.1-.6-1.6-1l.2-.6c-.1-.2 0-.3.4-.5 1.2-.7 1.8-3.3 1-4-.2-.3-.3-.5-.3-.8.1-.4 0-.6-.5-.3H166m169.8.1c0 .5.4.4.5 0 0-.2 0-.3-.2-.3s-.3.1-.3.3m-118.9 0c-.2.2 0 .5.2.5.4 0 .6-.3.4-.5 0-.2-.4-.2-.6 0m-105.1.3c-.2.2-.1.7.2 1 .4.3 1.1.3 1.3 0 .2-.6-1.1-1.4-1.5-1m89.2.1c-.1.1-.8.2-1.7.2-1.8 0-3 .5-3.3 1.1-1 1.7-.2 4 1.2 4 .2 0 .3.1.3.5 0 .6.6 1.4 1.1 1.3.7 0 1.2-.9 1.1-1.8 0-.7 0-.8.3-1 .7-.1 1.3-1 1.4-2 .1-.6.3-1 .5-1.3.7-.7-.1-1.7-.9-1m167.5 0c.1.3.5.4.5 0 0 0-.1-.2-.3-.2-.1 0-.2 0-.2.2m-135.4.4c-.2.2-.1.4.2.4 0 0 .2 0 .2-.2s-.3-.3-.4-.2M79.3 66c-.1.3.3 1 .7 1 .4 0 .6-.4.3-.9-.2-.4-.9-.5-1-.1m65.1 0c-.1.4 0 .8.4.8.1 0 .2-.2.2-.5 0-.5-.4-.7-.6-.3m28 .2c-1.2.7-1.3.8-1.8.4-.8-.7-1.3-.4-1.5.8v1l.6.6c.4.4.6.7.6 1 0 .7.5 1.4 1.1 1.6l1 .4c.8.4 1.5 0 1-.5-.2-.3 0-1.7.4-2.1l.4-1 .2-1.3c.3-1.1-.9-1.6-2-.9m-44.7 0v.7c.2.5.9.5 1-.1 0-.7-.7-1.2-1-.6m4.3-.2c-.4.4.7 2.1 1.2 2 .6 0 .6-.6 0-1-.2-.1-.4-.4-.4-.6 0-.4-.6-.6-.8-.4m5.6.2c-.5.3-1 1.6-1 2.6.1 1.9 1.4 3 2.7 2.2 2.2-1.5.6-6-1.7-4.8m9.3-.1c-.1.3.3.8.6.8.4 0 .5-.1.3-.6-.1-.4-.7-.5-.9-.2m63.2.1c-.2.2-.1.7.2.8h1.2c0-.5-1.1-1-1.4-.8m-2.5.2l.1.4c.2.1.2.3.1.5-.2.5-.2 1 .2 1.1l.7.4c.2.3.6.4.6.1l-.3-.3c-.2-.1-.3-.3-.2-.5 0-.3 0-.6-.3-.8l-.4-.7c0-.3-.4-.4-.5-.2m-121 .5c-1.3.7-1.9 2.6-1.1 3.3l2 .8 1.9.6.5-.3c2.3-1.4 2.1-2.9-.3-4.2-1.4-.8-2-.8-3-.2m98.9-.4c-.3.3-.2.8.1 1 .5.2 1-.3.8-.7-.2-.3-.7-.5-1-.3m71.9 0c-.4.4.2 1.1.8 1.1.3 0 .5-.6.4-.8-.2-.4-1-.5-1.2-.3m99.7.2c.1.4.5.5.5 0 0-.1-.1-.3-.3-.3-.1 0-.2.1-.2.3m-175 .5c0 .6.1.7.5.7.5 0 .7-.6.3-1-.4-.6-.8-.4-.8.3m77.3-.3c0 .3.1.4.4.4.2 0 .3-.1.3-.4 0-.2-.1-.3-.3-.3-.3 0-.4.1-.4.3m-18.5 0c-.3.3-.1 1 .3 1.2 1 .3 1.2-.3.5-1-.4-.3-.6-.4-.8-.2m-139.3.3l-.2.5c0 .5 1 .5 1 0 0-.3-.4-.6-.8-.5m57.9.1c-.3.3-.3.5 0 .8.4.3 1-.2.7-.6-.3-.4-.5-.4-.7-.2m3 .4c-.7.7-.7 1.2-.2 1.8.8 1 1.8.2 1.8-1.3 0-1.3-.7-1.5-1.6-.5m100-.4c-.7.4-.6 1.8.3 2 .4.2.4.4 0 .6l-.4.5c-.3.6-1.7.7-2 .2-.2-.2-.3-.2-.5 0l.2.4c.2 0 .3.3.3.5 0 .9.6 1.1 1.3.5l.5-.4.3.4c.5.6 1 .8 1.7.6 1.4-.4 1.1-3-.4-3h-.4l.5-.6c1-1 0-2.5-1.3-1.7m84 0c-.2.3-.2.6 0 .8.4.2.8 0 .8-.4s-.5-.6-.8-.4m-158.3.1c-.3.2-.9 1.6-.8 2 .3.9 1.1 1.1 1.8.5.8-.9 0-3-1-2.5m174.2 0l-.6.1c-1 .2-.5 2.2.5 2.1.6 0 1.3.6 2.4 2.2.7 1.1.8 1.5.3 1.5-.3 0-1-.8-1-1.1 0-.7-1.2-1.6-1.6-1.2-.4.5-.3 1 .5 1.8l.8 1c0 .2 1.3.3 1.6.1.3-.2.4-.1.8 0 .8.6 1 .1 1.1-1.7 0-1.8-.5-3.1-1.4-3.5l-1.1-.6-1.2-.4c-.3 0-.5-.2-.6-.3h-.5m-9.6.5c-.2.5 0 .8.5.6.2-.1.5-.2.7-.1l.3-.1c0-.1 0-.2-.2-.2s-.4-.2-.5-.3c-.3-.5-.6-.5-.8 0m18-.2c-.5.2-.6.7-.2 1 .8.7 1.7 0 1-.8-.4-.4-.4-.4-.9-.2m-252.6.6l.7.7c.2.1.4.4.4.6 0 .8 1.1.8 1.1 0l-.4-.6-.4-.7c0-.1-.2-.3-.4-.3-1.4-.3-1.3-.4-1 .3m99.5-.2c-.1.3.3.8.7.8.4 0 .2-.6-.2-.8-.4-.2-.5-.2-.5 0m9.5 0c-.2.2-.1.4.2.4 0 0 .2 0 .2-.2 0-.3-.2-.3-.4-.2m97.4.1c-.3.4-.2.9.2.8.5 0 .8-.6.5-.8-.4-.2-.4-.2-.7 0m-81 .2c-.2 0-.3.3-.3.6l-.2.7c-.2.3-.1.5.2.9.3.4.3.5.2.8-.3.4-.3 1 0 1 .5.2.8 0 1.1-.9.3-.8.5-1 1-.6.9.6 2-.2 1.6-1-.1-.3 0-.4.2-.8l.4-.4-.4-.2c-.6-.5-1.5-.2-1.2.4.2.6-.9.3-1.7-.4-.5-.3-.5-.4-1-.1m100 0c-1 .2-1.1 1.5-.2 1.5.4 0 1-.8 1-1.3-.1-.3-.3-.4-.9-.3m-191 .3c-1.1.5-1.2 1.7-.3 2.5 1.5 1.3 3.5-.6 2.3-2.1-.5-.6-1.3-.7-2-.4m82.1 0c0 .1 0 .6.3.6l.1-.4c0-.4-.2-.6-.4-.3m18.8.1l.1.5c.2.2.8-.3.6-.6-.1-.2-.6-.2-.7.1m-17.3 0c-.5.3-.2.8.4.9.4 0 .5 0 .5-.3 0-.5-.5-.8-1-.5m103.4 0c0 .3.3.5.6.5s.2-.5 0-.6c-.5-.1-.6 0-.6.2m-149 .4c-.6.5-.6 1.3 0 2 .6.6 2 .3 2.4-.6.7-1.3-1.3-2.5-2.4-1.4m126-.1c0 .3.3 1 .6 1 .4 0 .6-.7.3-1-.4-.3-.7-.3-.9 0m4.5 0l.3.2c.1 0 .2 0 .1-.1 0-.1-.1-.3-.3-.3l-.1.1m-175.7.7c-.4.8-.4 1.2 0 1.2.3 0 1-1.2 1-1.7s-.7-.1-1 .5m32.9 0c-.6.5-.6.6-.3.8.3.4.7 0 .8-.8.1-.8.2-.8-.5 0m50.4-.3c0 .1.1.3.3.3.3 0 .4-.2.3-.4-.1-.4-.6-.3-.6 0m30.9-.1c-.3.2-.2.8.1.8.3 0 .5-.6.3-.8h-.4m-128.4.3c-.7.6-.7 1.5.1 1.8l.6.3-.3.4c-.5.5-.4.8.4 1l.8.4v-.5c0-.5-.2-.9-.4-1-.3-.3-.3-.3-.1-.5.4-.4.4-1.6-.1-2-.5-.3-.5-.3-1 .1m43.8-.2c-.2.2-.1.7.1.9.4.3 1 0 1-.6-.1-.3-.8-.6-1-.3m160 0c-.3.3-.3.6.2.6s.7-.3.4-.5h-.5m34 .1l-.6.4c-.4 0-.2.4.3.5l1.4 1c1 1 1.2 1 1.8.8.4-.1.5-.3.5-.7 0-.3 0-.7.3-1 .3-.6.1-.8-.5-.2-.6.5-.6.5-1.4-.3-.9-.8-1.4-1-1.8-.5m-252 0c-.3.3-.1.9.3 1 .7.1 1.1-.4.6-.8-.4-.3-.7-.4-1-.2m102.5 0c-.7.3-.4 2 .3 1.7.2 0 .5 0 .7-.2.7-.1.8-.5.1-1.1-.5-.6-.5-.6-1-.4m103.7.3c-.4.3-.4.3-.8.1-.5-.4-1.1-.2-1.2.3 0 .6.5 1 1 .6 1-.6 1.4-.7 1.6-.6.3.3.6.2.5-.2 0-.5-.6-.6-1.1-.2m-246 .2l.1.4c.3.3.7 0 .7-.4s-.6-.4-.7 0m22.6 0c-.8.8-.4 1.9.6 1.9.6 0 .7.2.3.7l-.3.6-.4.6-.5.4.4.3c.3.3.4.4.7.2.2-.2.4-.2.7 0 1.4.6 2.6-.5 2-1.9-.2-.7-1-1.1-1.6-1-.5.1-.5 0-.2-.5.7-1-.8-2.2-1.7-1.3m196.6 0c0 .6 0 2.3.2 2.4.2.3.5 0 .5-.4 0-.3.2-.5.3-.7.5-.2.4-.5-.4-1.1-.4-.4-.5-.4-.6-.2m44.3-.1c-.4.2-.3.6 0 .7.5.1.7 0 .7-.4s-.3-.5-.7-.3m-136.3.3c0 .2.1.3.3.3.1 0 .2-.1.2-.3 0-.2 0-.3-.2-.3s-.3.1-.3.3M54.1 70c-1.2.3-2.3 2.2-2 3.3.4 1 4.3 1.8 5.2 1 1.8-1.6 1.3-3.3-1.3-4.1-1.1-.4-1.3-.4-2-.2m158.1 0c-.7.3-.4 1 .4 1 .3 0 .4-.2.5-.6 0-.6 0-.7-.9-.4m121 0c-.2.1-.1.3.1.3s.3 0 .3-.2c0-.3-.2-.3-.4-.2m-222.4.3c.1.3.5.4.5 0l-.3-.2c-.1 0-.2 0-.2.2m5.2 0c-.3.2-.3.6 0 .7.2.2.6-.2.6-.6 0-.3-.3-.4-.6-.1m39.8.2c0 .2 0 .4.2.5.5.4-.1 1-.7.8-1.2-.2-2.2 1-1.6 2 .3.3.5.4 1.3.5l1.3.2c1 .4 2.3-1 2.4-2.5v-.8h-1c-.8-.1-1-.2-1-.5 0-.4-.7-.6-.9-.2m128.9 0c-.3.2-.3.2 0 .6.4.4.5.4.7 0 .4-.6-.1-1-.7-.6m-134.5.2c-.2.3.2.6.6.5l.3-.4c0-.4-.8-.5-1-.1m149.3-.1c-.2.3 0 .5.4.5.2 0 .3 0 .3-.3-.1-.3-.6-.5-.7-.2m-81.9.1c-.2.2 0 .4.3.4.2 0 .3 0 .3-.2-.1-.2-.4-.3-.6-.2m65.7.5c0 .4 0 .6.2.6s.6-.8.4-1c-.2-.4-.5-.2-.6.4m58.3-.4c-.4.3-.3 1 .1 1.6.3.2.6.7.7 1 .4.5.6.4.8-.4.2-.9-.2-2-.9-2.2-.6-.2-.5-.2-.7 0m-232.6.3c-.5.7.6 1.6 1.2 1 .2-.3.1-.4-.3-.8-.5-.6-.6-.6-1-.2m145.1 0c0 .7.6 1 1.6 1 1.2.1 1.5-.5.3-.7-.4 0-.8-.2-.9-.4-.3-.4-1-.3-1 0m81.6 0v.3c.2.1.3 0 .3-.1.1-.3-.1-.5-.3-.3m-253.6.4c0 .5 1.3 1.6 1.5 1.4.3-.3-.5-1.7-1-1.7-.4 0-.5 0-.5.3m105.3-.2c-.2.2 0 .5.2.4.2-.1.2-.6 0-.6l-.2.2m-110.6.2c-.2 0-.2.2 0 .8.2.7.2.7-.1 1-.8.4-.2 1.5.8 1.5.6 0 .8-.7.3-1.2-.3-.4-.3-.4 0-.7.6-.6-.2-2-1-1.4m47.7 0c-.1.1-.1.3 0 .4.2.3.8.3.8 0 0-.4-.6-.6-.8-.4m71.9 0c-.2.4 0 .8.3 1 .4 0 1-.7.7-1-.2-.3-1-.3-1 0m6.5 0c-.3.2-.4.9 0 1 .6.6 1.6.3 1.6-.5 0-.4-1.2-.7-1.6-.5m27.4 0a2 2 0 01-.9.1c-.9 0-1 .8-.2 1 .2 0 .6.3.8.5 1.2 1.2 1.5 1.4 1.5.6l.1-.5c.4-.3-.4-1.9-.9-1.9a1 1 0 00-.4.2m-113.6.3c-2 .4-2 .5-2 3.4 0 1.6.2 2.3.3 2.5.2.2.3.7.3 1 0 .5.4.8.8.4.2-.2.2-.4.1-.6-.4-1 1-2.5 2-2.5l1-.5.6-.4.3.5c.2.4.6.5.8.2.1-.3-.3-.8-.6-.8s-.3 0-.2-.5c1-2.4-.3-3.4-3.4-2.7m27 0c-.8 1.2.5 2.5 1.7 1.6.4-.3.7-.2.7.3 0 1.2 2.6 1 2.9-.1.4-1.7-2-2.7-2.9-1.2l-.3.5v-.4c-.4-1-1.5-1.4-2-.7m70.4.2c-.3.8-.4.8-1.4.4-1-.3-1.7-.2-1.8.3 0 .2-.2.4-.3.5-.4.3-.1.7.3.5.2 0 1 .1 1.8.4l1.4.4.5-.5c.5-.5.5-.5.2-1-.2-.3-.2-.7-.2-1 .2-.7-.2-.7-.5 0m-135.3-.2c-.2.2.4.6.6.4 0-.1.1-.3 0-.4 0-.2-.5-.2-.6 0m33.4 0c-.4.2-.1 1 .3 1 .5 0 .8-.5.5-.9-.2-.3-.4-.3-.8-.1m64.3 0c-.8.6 0 2 .8 1.5.6-.2.6-1.3 0-1.5-.6-.2-.5-.2-.8 0m124.6 0c-.1.2 0 .5.3.5.2 0 .2-.5 0-.6l-.3.1m-16.9.2c.1.3.8.4.8.2s-.4-.4-.7-.4c0 0-.1 0 0 .2m-64.6.4c-.4.5-.4.7 0 .7s1-.7 1-1c-.2-.2-.5-.1-1 .3m46.2-.1c0 .4.4.5.5.1.1-.3 0-.4-.3-.4-.1 0-.2.1-.2.3m2.4 0c-.1 0 0 .3 0 .4.3.2.7 0 .7-.4s-.6-.5-.7 0M67.6 72c-.2.4 0 .8.3.8s.6-.4.5-.7c-.1-.3-.7-.4-.8 0m93.1 0l.1.3c.2.2.8 0 .7-.3-.1-.3-.6-.3-.8 0M193 72v.7c.3.9.3.9 1.1.5.7-.3.8-.6.3-.9-.5-.2-1.2-.4-1.4-.3m45.6 0c-.2.3-.2.4 0 .5.2.3.7 0 .8-.4 0-.3-.5-.4-.8 0m75.6 0c.2.4 0 1.1-.3 1-.4-.1-.4-1.3 0-1.3l.3.3m-12.3.2c-.2 0-.4.3-.4.4v.3l.6.4c.7.4 1 0 .9-.7-.2-.8-.3-.8-1-.4m-119.5 0c-.1.2 0 .8.1 1 .4.3.7.2.8-.2.1-.6-.5-1.2-.9-.8m-32.9.5c-.2.2 0 .6.5.8.4.1.4.4 0 .5-.4.1-.4.5-.1.7 0 0 .3 0 .4-.3l.6-.4c.5-.2.5-.6 0-1.1-.7-.6-1.1-.6-1.4-.3m21.7 0c-.2.3-.5 2-.4 2 .2.2 1.5.1 1.8-.1l.7-.3c.4 0 .5-.3.1-.6l-.2-.4c0-.7-1.6-1-2-.6m127 0c-.3.1-.3.2-.1.6l.2.8c0 .4.4.4.8.2.5-.4.5-.7 0-1.3-.4-.5-.5-.6-1-.3m19 0c0 .3-.2.5-.5.4-.3-.1-.2-.6.1-.6l.4.2m60.2 0c-.2.2 0 .5.2.5s.2-.5 0-.6h-.2M97 73c0 .2.2.4.3.4.2 0 .3-.2.3-.4s0-.3-.3-.3c-.2 0-.3 0-.3.3m28.4-.2l-.7.1c-.3 0-.4.2-.3.4 0 .2 0 .4-.3.6-.4.4-.3.6.1.6.2 0 .4-.2.4-.4.1-.8.5-.8.9-.1.3.5 1 1 1 .5l.4-.2c.5 0 .6-.8.1-1.2-.3-.3-1-.5-1.6-.3m11 .2c0 .4.5.4.6 0 0-.2 0-.3-.3-.3s-.4 0-.4.3m51.2-.1c0 .2.1.3.3.3.5 0 .4-.4 0-.5-.2 0-.3 0-.3.2m45-.1c-.6.5.1 1 .7.4.3-.3.3-.3.5 0s.7.4.9.2c.2-.4-1.8-1-2.1-.6m-197.2.5c0 .5.6 1.4.9 1.4l-.2-1.4c-.3-.6-.7-.6-.7 0m311.9.2c0 .7-.3 1-.5.6l-.3-.6c-.3-.4-.1-.7.4-.6.4 0 .4 0 .4.6m10.8-.2l-.2.6c0 .3 0 .6-.3.7-.2.2-.2.3 0 .4.1.2.2.2.3 0l.7-.5c1.2-.6.8-1.7-.5-1.2m-171.2.5s.1.2.3.2c.1 0 .2-.1.2-.3a.3.3 0 00-.5 0m62.2.3c0 .1.1.4.3.5.2.3.2.3-.3.5s-.6.2-.9-.2c-.4-.5-.3-.5.2-.8.2 0 .4-.2.4-.3 0-.1 0-.2.1-.1l.2.4m119.3 0c-.4.4-.4.5-.2.8.1.2.2.5.1.8 0 .5 0 .5.7.7.6.2.8.3.8.7 0 .3.2.4.4.5.8 0 1-1 .3-1.3-.4-.1-.5-.3-.7-1.2-.3-1.6-.6-1.8-1.4-1m-238.2-.2l.1.3c.4.1.5 0 .4-.3-.1-.2-.4-.2-.5 0m9 .4c-.3.3-.4.6-.3.8.1.7-.8 1.3-1.5 1-1-.5-1.2.7-.3 1.8.4.4.7 1 .7 1.4 0 1.1 1.7 1.3 2.8.2 1.1-1 1-2.6-.3-2.6-.2 0-.4-.1-.5-.3l-.3-.7c-.2-.5-.2-.5.2-1l.4-.8c0-.5-.6-.4-1 .2m21-.3c-.2.3.1.8.5.8.2 0 .5-.5.4-.8 0-.3-.6-.3-1 0m-70.5.7c-.1.8.1 1.2.8 1.2.8 0 .8-.7 0-1.4l-.7-.6v.8M44 74.3c-.2.4.2.7.5.4.4-.2.4-.6 0-.7-.3 0-.4 0-.5.3m24.1 0c-.1.4.1.7.5.7.3 0 .4-.2.4-.5 0-.5-.7-.7-.9-.3m38.8.3c-1 1-1 1.2-.4 2 1.2 1.3 2.3 1.2 2.8 0 .7-1.8-1.3-3.3-2.4-2m30-.3c0 .2.1.5.4.5.2 0 .3-.2.2-.3 0-.3-.4-.5-.5-.2m21.6.3c0 .4.5.8.5.4v-.5c.2-.3.1-.4-.2-.4-.3 0-.3.1-.3.5m152 0c.3.3 0 .6-.4.2-.2-.1-.3-.3-.3-.4 0-.2.4-.2.7.1m-120.9.3c0 .6.4.8.6.4.3-.4.2-.8-.3-.8-.2 0-.3.2-.3.4m22.1-.1c-.1.3 0 .6.3.6s.5-.5.4-.7c-.2-.3-.6-.2-.7 0m3.8.4c-.6.8-.5 1.3.2 1.3.6 0 .6 0 .5-.6v-.9c-.1-.5-.3-.5-.7.2m3.8-.4c-.4.2-.4.5 0 1.1.6 1.3 1.5 1 .9-.3-.4-.9-.6-1-1-.8m10.3 0v.6c0 .4.9.4 1 0 0-.6-.8-1-1-.5M84 74.7c.1.3.7.4.7 0l-.4-.2c-.2 0-.3 0-.3.2m235.7 0c0 .3-.4.3-.5 0 0-.1 0-.2.2-.2s.3.2.3.3m2.7-.1c-.4.4 0 .8.8.7.9 0 1.2-.8.4-.7a2 2 0 01-.8-.1h-.4m41.5.2c0 .4.6.5.6 0 0-.2-.1-.3-.3-.3-.3 0-.4 0-.3.3m-242.3.2c-.3.3-.4 1 0 1s1-.8.7-1c-.2-.4-.4-.4-.7 0m82.9.7l.3-.3c.4-.4 2.9.4 2.9 1 0 .2-.2.1-.7-.2-.4-.3-1-.2-1.5.4l-.3.3-.1-.4c-.2-.4-.6-.2-1.5.7-1.6 1.4-2.6 1-1.3-.6l.7-1c0-.7.4-.8.9-.3l.6.4m160.5-.2c0 .3-.2.8-.4 1.1-.2.7 0 1 1 1.5.9.4.9.6.1 1.2-.7.6-.7.6 0 1.2.5.4.5.5.5 1.3 0 .9.3 1.4.7 1 .2-.2.6-.2 1 .1.2.2.3.2 1-.6.6-.4 1-.8 1.3-.8.7 0 .3-.7-.7-1.2-1.5-.7-1.8-1.2-1.8-2.6 0-1.2-.4-1.9-1-1.9-.2 0-.4 0-.4-.3 0-.9-1-1-1.3 0M159.5 75c0 .2.5.4.7.3 0 0 .1-.2 0-.2 0-.2-.7-.2-.7 0m100 0c-.1 1.5.8 2.7 1 1.3.2-.5.1-.6-.2-.8-.1-.1-.3-.3-.3-.5 0-.3-.5-.3-.5 0m-189.3.3c-.2.4.1.9.5.8.5 0 .7-.6.5-.9-.3-.3-.8-.3-1 0m4 .2c-.3.2-.5.6-.5.9 0 .4 0 .4-1 .5-1.3.1-1.6.5-1.2 1.5.2.3.4.4 1 .5h.6l-.6.7-.7.7c0 .3-1 1.6-1.2 1.6-.5 0-.8.5-.7 1.1.2 1-.3 1.3-1.7.8-.3 0-.4 0-.4.2 0 .1-.1.4-.3.5-.3.3-.4.6-.4 1.2v.7l-.3-.3c-.3-.2-.6-.4-1-.4-.5 0-.6 0-.2-.5.2-.2.2-.3-.1-1-.6-1.2-1-1.5-2.2-1l-.8.2-.6-.6c-.8-.9-1.2-.6-1.3.8-.2 2.1-.3 2.6-.7 3-.4.4-.4.4-.6 0-.1-.1-.3-.2-.5-.1-.6.1-1.9-1.1-1.6-1.6.1-.3 0-.8-.2-.8l-.7-.5c-.7-.6-1.2-.7-1.6-.2-.8.7-1.8 0-1.6-1.1v-.7h-.6c-.6.2-.6.2-1-.5-.3-.7-.7-.9-1.1-.5-.2.2-.3.2-.5 0-.3-.5-.6-.4-.6 0 0 .3.7 1.1 1 1.1.6 0 .7.4.4 1.5-.6 1.6-.3 2.2 1 2.4 1 0 1 0 1 .5-.1 1 0 1.7.2 2 .2.2.3.4.2.7 0 .3 0 .6.2.9.1.3.2.5 0 .6l-.2-.3c-.4-1.3-1.4-1.4-2.8-.1-.5.5-.6.5-1 .3-1.2-.4-2.6.4-3.3 1.7-.3.7-.6.8-1.2.6-.2 0-.3-.2-.3-.4 0-.1-.2-.2-.6-.2-.9 0-.5-.4 1-1l1.3-.8 1-1.5c1.4-1.4 2-3.5 1.2-3.5-.2 0-.3.1-.3.5.1.8-1.9 1.7-2.4 1-.4-.6-1.2-.4-1.4.4 0 .2-.2.3-.5.4-.3 0-.4.2-.4.6 0 .4 0 .5-.5.5-.8.1-1 .5-.7 1l.3.6.3 1c.4 1 .3 1-1 .8-1-.2-1.4 0-1.2.4.1.3-.7.4-1.2.2-.8-.3-.1-1.4.9-1.4 1.2 0 1.7-1 .9-1.5-.4-.3-.6-.7-.9-1.6-.8-2.6-2.8-2.8-2.6-.2 0 1 0 1.3-.4 1.3-.2 0-.3.1-.3.4-.1.7-2 1.8-3 1.7-2.4 0-3.2 0-3.5.3-.3.3 0 .7.7 1 .4.1.6.3.6.5 0 .5-.3.7-1.1.3-1.4-.5-2 0-1 .8.2.3.5.6.5.8 0 .5.4.7 1 .5.8-.3 1-.1.9.7-.2.8 0 1.3.5 1.3 1.2 0 2 2 .9 2.6-.7.3-.5.6.4.5h.7l.2.9c.3 1.4.8 2 1.3 1.5.3-.3.6 0 .5.3 0 .2-.2.3-.6.3-.5 0-.6 0-.6.3s.1.3.6.3c.6 0 .7 0 .7.4l.4.9c.5.6.5 1.4 0 1.6-.7.4-.9.2-.8-.8 0-.8 0-.8-.2-.7h-.4l.1 1.4c.2.3.2.4 0 .6-.4.5 0 .8.5.3.5-.4.6-.4 1-.3.6.3.8.1.9-.7 0-.8.4-1 .7-.3.3.7.3 1 0 1.3-.4.3-.4.3.3 1l.7.6-.4.3c-.4.3-.5 1 0 1.5s.7 1.6.5 2.1c-.3.6-.3 1 .2 1 .4 0 .6-.4.7-1.2 0-.3.3-.8.5-1 .3-.4.2-.9-.3-1-.4-.3-.3-.6.5-1.6.7-.9.8-1 .8-2 0-1.4.8-1.1 1 .5.1.7.1.8-.2.7-.3 0-.5 0-.5.2s0 .2.3.1c.4 0 .5.5 0 .7-.1 0 0 .2.5.8l.7.7.4-.5.4-.5.2.4c.2.2.3.6.4 1 0 .5.7 1.1 1.1 1.1.2 0 .4.3.5.7.5 1.1 2 1 2.2-.4.1-.5-.2-1-.8-1.2-.5-.1-.4-1.8.1-3.2.5-.9.4-1.3-.2-1.2l-.6-.1c-.4-.3-1.2-.3-1.8 0-.6.1-1.2-.5-.9-.9.2-.1.3-.7.4-1.1 0-1 .3-1.5.6-1.3l.1.4c0 .5 0 .6.2.2.2-.3.4-.5.7-.5l.5-.2c.4-.3.8-.2 1 .4.2.6.5.8.9.7.3-.2.3-.5 0-1-.2-.4.2-.5.5-.2l.7.3c.3.1.4.3.4 1.2 0 1 0 1.1.3 1.2.2 0 .3.2.3.6 0 .2.1.5.3.5.3.2.9-.3.9-.8l.2-.5c.3-.1.4 0 1.4.8l.6.6v1.6c0 1.7.2 2 1 2.1.9.1.5 1.1-.7 1.5-2.4.8-3 4.2-.8 4.6 2.5.4 4.7-1.7 4.1-3.9-.2-.8-.1-1.2.3-1.2.5 0 .8-.4.7-1-.1-.6 0-.8.5-.8s.6.3.3 1.2c-.2.7-.1.8.2 1.1.4.4.9.1.9-.6 0-.2.1-.4.5-.5.6-.3.6-.8 0-1.6-.3-.5-.3-.6-.1-.8l.5-.7.2-.5.3.6c.2.6.6.8.9.4.3-.4-.4-1.8-.8-1.8-.2 0-.4 0-.5.2-.1.3-.4.1-.3-.2 0-.5.8-.7 1.4-.4.5.2.9-.2.9-1 0-.6.1-1 .4-1 .3 0 .6-.4.4-1-.2-.4 0-.9.3-1 .6-.2.8-.7.5-1.2-.6-.8-1.2-.3-1 .7 0 .6 0 .7-.7.3-.4-.3-1.7-.2-2.7.2-.2 0-.1 0 .2-.4.5-.4.6-.6.5-1 0-.7.3-1.7.6-1.7l.1-.3c0-.4.5-.7.7-.5 0 0 0 .3-.2.5v.7l.2.6c-.1.4.2.7.6.6.2-.1.6-1 .6-1.5 0-.3.5-.7.7-.5v.5c-.2.4 0 .7.5.7.4 0 .8 1 .6 1.4v.6c.3.5.2 1.4-.2 1.4-.2 0-.3 0-.3.3 0 .5-.4 1.2-.7 1.3-.4.1-.3.8.1.8 1.2-.2 1.8-.3 2-.7.8-.8 1.6-1.3 2.4-1.2.6.1.7.1 1.4-.5.6-.5.8-.6 1.6-.6 1.3 0 1.6-.6.6-1.1-.6-.3-.1-.4.6-.2.9.3 1.2-.2.4-.7-1-.6-.3-2.3.8-2 .3 0 .5 0 1-.5.3-.5.6-.6 1-.6.8 0 1.6-.3 1.8-.7l.3-.3c.3 0 .2.6-.1 1-.5.6-.5 1 0 1 .3 0 .7.3 1.1.8.7.8.8.9 1.6.8 1 0 1.4-.7.4-.8-.4 0-.6-.1-.6-.3 0-.5.4-.6.8-.2l1.2.6c1.5.5 2.1 1.3 1.4 1.7-.3.2-1.5.2-1.7 0 0-.2-.3-.3-.5-.3H82c-1.6.1-2.2.7-2.2 2.2 0 .5-.4.7-1 .6-.3 0-.5 0-.8.2l-.3.4-.6-.5c-.9-.6-1.4-.6-1.9.1-.8 1.2 0 3 1.3 2.8.6-.1.6 0 .2.5l-.4.8c0 .4 0 .4-.9.4-1.6 0-1.8.9-.7 2.3.9 1 .9 1 .5 1.5-.7 1 1 1.5 3 1 .8-.2.7-1.8-.1-1.8-.6 0-.5-1.7.2-2.6l.4-1c.1-.3.2-.4.7-.3.5.1.6 0 1-.5l.4-.6c.3 0 1.8.6 2 .8l.7.3c.2 0 .6.2.7.4.5.3.8.1.9-.5 0-.2.2-.5.4-.5.5-.1.6-.6.4-1.2-.2-.4-.2-.5 0-.8.2-.3.2-.7.2-1.3 0-1.2.1-1.5.7-1.4.7.2.8.3.2.7-.9.7 0 1.3 1.1.8l.8.1c.2.2.5.3.8.3.2 0 .5.1.6.3.3.4 1.3.5 1.5.1.2-.7.7-.1.7.8 0 .7.2.8 1.1.8.5 0 .9.2 1.3.5 1.3 1 1.4.1.1-1-1-1-1.1-1.6-.4-2 .8-.3 1.8.5 2 1.7 0 .5.3.9.7 1.3l.9 1c.2.4.4.4.9 0 .7-.7 1.7-.5 2 .3.4 1.1.4 1.2.7 1.2l1-.4.6-.5.3.4c.3.4.3.4.6.1.3-.3.2-.8-.3-.8-.2 0-.3 0-.2-.8.1-1.6-.5-2.3-1.7-2h-.6v-1l-.3-1.7c0-.9 0-1 .5-.5l.7.4c.2 0 .7 0 1.1.2.8.3 1.1.2 1.2-.5 0-.3.1-.3.8-.3 1 0 1.2-.1 1.2-1 0-.7.1-.7-1.7-1-.9-.2-2.2-2-1.7-2.5.4-.4 1.5-.3 1.5.1 0 .5.3.6.7.2.4-.3.6-.2.8.4.2.4.7.5 1 .2.3-.3.7 0 1.4 1.2.8 1.5.8 2.1-.1 2.1-.7 0-.7.2-.3.9.3.4.3.5.1.6-.2.2-.2 1.3.1 1.6.3.3.2.5-.4.4-.9-.2-1.5.5-.9 1 .2.2.4.2.6 0h.8c.8.4 1.2-.8.7-2.4-.2-.3-.1-.4.3-.6.7-.2.8-.5.4-1-.2-.3-.3-.5-.1-.6.5-.5 1 2 .6 2.4-.2.2-.2.3.1.5.4.3.5.9.2 1-.8.3-.4 1 .5 1 .3 0 .9.3 1.3.5.6.3.9.4 1.6.3.9-.1 1-.1.5.8-.2.5-.4.6-1 .7-.8 0-1 .8-.3.8.3 0 .5.1.6.3.3.5.6.3.6-.3 0-.4 0-.5.8-.5 1.6-.2 2-1.9.5-1.9-.7 0-.7-.1 0-.7.8-.6.9-1.7.2-2.1a7 7 0 01-1.4-2.2c0-.7-.3-.8-1.2-.5-1.6.4-1.8.2-1.9-1.4 0-1.3.4-1.7 1-1.1.6.4 1 .1 1-.7 0-1.2-.7-1.8-1.5-1.2-.7.6-2 .1-1.5-.5l.4-.7c.5-1.3.8-1.6 1.3-1.7.4 0 .4-.1.4-1 0-1.4.1-1.8 1.2-2 .4 0 1-.1 1.2-.3l.8-.2c.3 0 .4 0 .4-.5 0-.7-.6-1.1-1.4-.9-.3 0-.4 0-.5-.2 0-.2-.3-.4-.5-.4-.4 0-.5-.2-.5-.5-.1-.6.3-.7.5-.2.2.5.4.5 1-.1.3-.4.6-.5.9-.5.6 0 .8-.4.5-.9-.1-.2-.3-.3-.8-.3h-1.2c-.3-.2-.5-.1-.8.2l-.3.4-.4-.4c-.3-.3-.9-.3-1.4 0 0 .1 0 .5.3.9.4.6.4.7.2.9l-.1.7c0 .5-.2.7-.4.1 0-.2-.3-.3-.7-.3-.9-.1-1-1.1-.2-1.3.5 0 .6-.3.3-.6s0-2.3.3-2.2c.7.3.9.3 1 0 .5-.8-1.7-1.3-2.3-.6-.7.7-1.4.2-.8-.6.7-1 .3-1.7-.6-1-.7.5-1-.3-.3-1 .2-.2.2-.5.2-1-.2-.8-.2-.9-.7-.8h-.6c-.3-.2 0-.5.7-.6 1-.2.1-2-1-2-.4 0-1-.2-1.4-.4l-.8-.3-.4.4c-.6.6-.6 1.1-.3 3 .4 2 1 2.6 1.8 2.1.4-.3 1-.5.8-.3l.2.8v1.3c-.1.4-.2.9 0 1.1 0 .6-.4 1-.7.6 0-.2-.5-.8-1-1.4l-1-1.7c-.3-.8-.6-1.2-1.2-1.2a.8.8 0 01-.6-.3c-.5-.7-1.5-1-1.9-.6-.3.2-.7 0-.7-.4 0-.8-1.2-.4-1.6.6-.2.3-.3.4-1 .4H96v-.6c0-.6-.8-1.2-2-1.5-.8-.2-1.3-.6-1.8-1.2-.6-1-1.8-1.7-2.7-1.7-.6 0-.6 0-.6-.5s-1-.7-2-.3c-.7.4-.9.7-.5 1.2.6 1-.1 1-.9.2-.5-.7-1-.7-1 0 0 .5-.2.5-.9 0-1.1-.6-2.7-.1-2 .7.2.3.4.3.9.3.8-.1 1.2.1.8.5-.2.2-.7.3-1.7.4-1.4.1-3 .6-3 1 0 .3-.4.2-.6-.3-.2-.4-.2-.4-.8-.3-.7.1-2.2-.7-2.2-1.2 0 0 0-.2-.2-.2s-.2-.4.2-.7c.5-.6.5-2 0-2.1-.4 0-.6 0-.9.4m117.8-.2v.4c.1.1.6-.3.5-.5-.1-.2-.4-.2-.5.1m163.3 0c0 .2 0 .3.3.2.3 0 .3-.3 0-.4-.2 0-.3 0-.3.2m-309.4.3c-.2.4 0 .6.3.6s.6-.6.5-.8c-.2-.3-.7-.2-.9.2m197.2 0l.2.5c.1.4.6.4.9 0 .1-.1.1-.2-.2-.5-.5-.5-1-.5-.9 0m-118.7 0c0 .2.2.4.4.4s.2 0 .2-.2-.2-.3-.4-.4c-.2 0-.2 0-.2.3m24.7-.2l.1.4c.2.4.8.4.8.1 0-.4-.6-.8-.9-.5m170.8.2c.3.3.3.3 0 .6-.3.4-.7.3-1 0l-.5-.4c-.2 0-.2-.2-.1-.3.1-.3 1.1-.2 1.6.1m-194 0c-.1.2 0 .4.3.4.2 0 .3-.1.3-.2 0-.3-.4-.4-.5-.2m-90 .3c-.5.2-.7.9-.5 1.1.4.4 1.1-.2 1.2-.8 0-.6 0-.7-.7-.3m57-.1c-.2.2 0 .6.5 1 .7.7 1.3 0 .6-.7-.4-.5-.7-.6-1-.3m25.6 0c0 .2 0 .3.2.3l.1-.2-.1-.3c-.1 0-.2.1-.2.3m54.9 0c-.3.7.8 1.4 1.3.9.4-.3.4-.3 0-.7-.5-.5-1.2-.6-1.3-.2m21 .3l-.7.8-.5.8c-.7.4-.4 1.2.3.7.4-.3.6-.2.8.4.1.3.3.4.6.4.2 0 .4.1.5.3.2.6.6 0 .7-1 .2-1.5.2-1.5-.2-1.6-.3 0-.4 0-.4.3 0 .6-.1.7-.5.5-.4-.2-.4-.6 0-.7.2-.1.3-1 0-1.2 0 0-.3 0-.6.3m34.2-.3c-.1.3 0 1.5.1 1.6.3.2.5 0 .3-.4-.1-.2-.1-.3 0-.4.3-.1.2-.9 0-.9l-.4.1m93.3 0c-.1.3.4.8.7.7l.1-.4c0-.4-.6-.5-.8-.2m-188.3.3c-.2.2 0 1.3.3 1.5.3.3.8 0 .8-.6 0-.7-.8-1.4-1.1-.9m55 0c-.5.1 0 1.3.7 1.3l.5-1a4 4 0 00-.8-.4h-.4M58.8 77c-.1.2 0 .3.3.5.5.2.8 0 .7-.5-.1-.3-.7-.3-1 0m63.3.1c-.3.3-.3.4 0 .6.3.3.8.2 1-.3.2-.7-.5-.9-1-.3m-57.5.1c-.1.1 0 .4.1.5.3.3.3.3-.2.8-.8 1-1 1.7-.6 2.2.6.6 1.6.7 2.2.3 1.7-1.4 1.7-3.2-.1-3.2-.4 0-.6-.1-.6-.2.2-.2-.2-.7-.5-.7l-.3.3m24.6.5c0 .5 0 .5-.3.2-.3-.5-.3-1 0-.8.2.1.3.4.3.6m205.6-.5c-.1.2 0 .4 0 .4.3.3.8.1.8-.3s-.7-.5-.8-.1m-266.1.3c0 .5.4.8.7.5.2-.3 0-.8-.5-.9-.2 0-.2.1-.2.4m152 0c.5.3 1 1.8.7 1.8-.3 0-1.6-1.4-1.6-1.7 0-.4.5-.4 1 0m36.4 0c0 .2 0 .3.3.3s.3 0 .3-.2l-.1-.4h-.3c-.1 0-.2.1-.2.3m47.5-.2c.3 0 .2.6 0 .8-.4.3-1.1.4-1.3.3-.4-.3.2-1.3.7-1.2l.6.1m95.8.3c-1 .6-1 1 0 1 1.2-.1 1.7-.7 1.1-1.2-.2-.3-.2-.3-1.1.2M42 77.7c-.7.8 0 2.6 1 2.6.9 0 1.2.5.7 1-1 1 .2 2.8 1.2 2 .8-.6.8-2.3 0-2.3-.5 0-.6-.2-.3-1.2.6-2-1.3-3.5-2.6-2m284.6-.3c.4.4.3.7-.3.7-.5 0-.8-.5-.4-.7.3-.2.5-.2.7 0m20.5 0c.5.5 0 1.4-.6 1.2-.6-.2-.6-.4-.2-.9.5-.5.6-.5.8-.3m-251.9.2c.1.3.5.4.5 0l-.3-.2c-.1 0-.2 0-.2.2m228 0c0 .2 0 .5.3.5l.2-.4c0-.3-.3-.4-.4-.1m-88.7.4v.4c-.2 0-.3 0-.3-.2V78c-.2-.2-.1-.3 0-.2.2 0 .3.2.3.4M57 78c-.4.2-.1 1 .3 1 .7 0 1.4.5 1.8 1 .3.6.7.6.6-.1 0-1-.2-1.7-.4-1.9-.3-.1-2-.2-2.3 0m68.6 0c-.2.4.2 1.2.6 1.6.8.7 1.5-.3.8-1.2-.4-.6-1.3-.8-1.4-.3m194.3-.1l-.4.2c-.2 0-.3-.1-.3-.2l.5-.2c.2 0 .3.1.2.2m-284.3.4c-.2.3-.3.3-.7.1-.8-.3-1-.2-1.4.6-.7 1.6.3 2.8 1.5 1.8l.5-.4.2.9c.3 1.4 0 1.3 3.4.7.8-.2 1-1.6.3-2.4-.6-.6-1-.7-1.7-.3-.6.3-1 .2-1-.2.3-.8-.5-1.3-1-.8m10.8 0c-.2.3 0 1 .4 1s.5-.5.3-.9c-.2-.3-.5-.4-.7-.1m200.5 0c.3.4.4 1.8.1 1.8-.2 0-1-1.5-1-2 0-.1.7 0 .9.2m22.3-.1c0 .7-1.2 1.3-1.6.8-.3-.3-.2-.5.7-.7.9-.2 1-.3 1-.1m-200.8.3c-.4.4 0 .9.6.9.5 0 .9-.3.8-.8-.1-.4-1-.5-1.4-.1m5.7 0l-.6.2c-.5 0-.6 0-.4-.2.3-.3 1-.3 1 0m25.2-.1l.2.2c.2 0 .3 0 .4.2 0 .2.1.2.2.2.3-.2.2-.4 0-.4s-.3-.1-.3-.2c0 0-.1-.2-.3-.2l-.2.2m1.6 0c-.1.2.2.7.4.7.3 0 .2-.5 0-.7-.2-.1-.3-.1-.4 0m117.3 0c-.1.4 0 .7.4.7s.6-.3.4-.6c-.3-.3-.7-.3-.8 0m144.6 0c-.2.5.2 1.4.7 1.4.3 0 .9-.9.7-1.2 0-.4-1.2-.5-1.4-.1m-125.1.2c.2.5.3.5.7.1.4-.4.7-.2.7.5 0 .3 0 .4-.4.3a4 4 0 00-.9-.1c-.9 0-1.4-.6-1-1 .3-.3.7-.2.9.2m-24.2 0l-.3.5-.4.3-.4-.3c-.5-.6.5-1 1-.5m83.8.1c.4.7-.4 1-1 .5-.6-.4-.4-1 .3-.8.3 0 .6.2.7.3m59-.2l-.1.6-.5.8c-.3.2-.3.3-.2.6.5.8 2.2 1.4 2.5.8 0-.2.3-.4.6-.5.8-.2.8-1.2 0-1.4-.2 0-.5-.3-.7-.6-.3-.4-1.4-.7-1.6-.3m-258.8.1c-.2.2 0 .4.4.4.2 0 .3 0 .3-.2s-.5-.3-.7-.2m82 .7c0 .6.1.8.5.9.5.2.5.5 0 1-.3.2-.3.2-.9-.4l-.7-.6-.3-.5c-.3-.7 0-1.2.8-1.2h.7v.8M223 79c0 .2-.2.3-.3.3-.2 0-.3-.1-.3-.3 0-.2 0-.3.3-.3.2 0 .3.1.3.3m3.7 0c.1.2 0 .2-.2.3-.4.1-.8-.1-.6-.4.2-.2.5-.2.8 0m112.8.1c0 .5-.2.7-.7.8l-.7.2-.3-.1c0-.4.4-.7.7-.7.2 0 .3 0 .4-.2.1-.4.6-.3.6 0m-285 .3c-.8.6-.7 1.2.2 1.8.6.4 2.1-1.4 1.7-2-.2-.3-1.3-.2-1.9.2m16.3-.2c-.2.3 0 .8.3 1 .4 0 .8-.5.6-.9-.2-.4-.6-.4-.9 0m16.8.6l1.1.4c.3 0 .7.8.5 1H87l.3.7c.4 1-.1 1.4-.8.6-.2-.3-.4-.7-.4-1 0-.3-.4-.8-.8-1.2-1.2-1.3.3-1.6 2.3-.5m191.7-.6c.6.4.5 1-.2 1-.7-.2-.6-.2-.4-.7.1-.5.2-.5.6-.3m72 1l-.5.4c-.5 0-.5-.4 0-1 .7-.6 1-.3.5.6m-42.6-.5c0 .3-.5.5-.8.2-.1-.1 0-.2.2-.4.4-.3.6-.3.6.2m-246.5 0l.1.4.2-.4c0-.1 0-.3-.2-.3l-.1.3m73.2-.1c-.1.2.4.7.6.5.2-.2 0-.7-.3-.7 0 0-.2 0-.3.2m115.5.8v.6c.2 0 1 1.5 1 1.7h-.7c-.7-.2-1 0-1.3 1-.1.4-.4.5-.6.3l.1-.6c.2-.3.3-.7.3-1 0-.3 0-.6.4-.8.3-.2.4-.3.3-.7-.2-.8 0-1.6.4-1.3 0 .2.1.5 0 .8m110.3-.9l.1.4c.3.2.6 0 .4-.3-.1-.2-.4-.2-.5 0M30.4 80c-.2.7.4 1 .8.3.3-.4.2-.6-.3-.6-.2 0-.4 0-.5.3m-2.9 0c0 .3.2.4.3.5.2 0 .2 0 .2-.3l-.3-.3c-.2 0-.2 0-.2.2m294.2 0l-.2.3s-.2 0-.2-.2l.2-.4s.2.1.2.3m-235.8.1l.1.4c.2.1.7-.3.6-.5-.2-.2-.6-.1-.7.1m70.8 0l-.3.1-.2-.1c0-.1 0-.2.2-.2s.3 0 .3.2m50.6 0c0 .4.5.5.8.2.3-.4.7 0 1 .8.2 1 .7 1.2 2 .6 1-.6 1-.6 1.2 0 0 .4 0 .6-.2.6-.8.3-1.2 1.1-.7 1.6.2.2 0 .4-.4.6-.3 0-.3 0-.2-.3.3-1.2 0-1.7-1-1.5-.7.2-.8.5-.4 1.4.3.6.3.6 0 1-.4.4-.4 1.2 0 1.4.2.2.1.4-.4.7-.6.3-.8.2-.8-.4 0-.3-.2-.5-.5-.7-.3-.1-.5-.3-.5-.6 0-.2-.1-.4-.3-.5-.2-.2-.1-.3.5-1 .8-.7.9-.8.5-1.2-.4-.3-.8-.2-1 .2a2 2 0 01-.5.6c-.2.2-.3.4-.2.7 0 .3 0 .5-.2.6l-.6.3c-.8.8-1.7.5-1.1-.3.2-.2.2-.5.1-1-.1-1 0-1 .7-.6 1 .7 1.8-.7 1.2-2.2 0-.3.1-.9.4-1 .3-.3.6-.2.6 0m-84.1.3c0 .2-.1.3-.2.3 0 0-.2-.1-.2-.3 0-.2.1-.3.2-.3 0 0 .2.1.2.3m82.2 0c0 .1 0 .3-.2.5-.5.3-.7.2-.7-.3 0-.6.7-.8 1-.2m167.6 0v.5c.3.3.8 0 .7-.3 0-.4-.6-.5-.7-.1m-146.3.2l.4.3-.4.2c-.2 0-.4.3-.4.6 0 .2 0 .4-.4.4s-.5-.5-.2-.7l.2-.6c0-.6.2-.6.8-.2m66.9 0l-.5.4c-.3.1-.6.3-.6.6-.2.4-.2.5-.7.1-.9-.6-.2-1 1.6-1.4.1 0 .2.1.2.3m23.3.4c0 .4-.3.5-.6.3-.2-.2-.2-.3 0-.6.3-.5.6-.3.6.3M68.4 81c0 .3.3.7.7.7.2 0 .5-.6.3-.9-.2-.2-.9-.2-1 .2m243.6-.1c.2.3 0 .4-.5.4s-.7-.3-.4-.5c.2-.2.7-.1.9 0m18.8.3c0 .3-.2.3-.4 0-.1-.2 0-.5.3-.3l.1.3m1.6.3l-.1.7h1c.7 0 1.1-.1 1.3-.3.4-.4 1-.4 1.4 0 .3.2.7.4 1 .4.5 0 1 .2 1 .6 0 .2-.4.3-.6 0-.3-.5-1.2.2-1 .8.3.7-.7 1-1.4.5-.3-.2-.6-.3-1-.2-.6.1-.6.2-.3.8.6.9-.1 1.4-.8.5-.4-.5-.9-.3-.9.3 0 .8-1 1.3-2.1 1.2-1.5-.2-2.2-.7-1.5-1.1v-1l.1-1c.2 0 .2-.2 0-.3-.3-.3-.2-.4 1-.4 1.1 0 2.2-.7 2.2-1.6 0-.5 0-.6.5-.6.3 0 .3 0 .2.7M67 81.4v.6c.6 0 .8-1 .4-1.1-.2 0-.3 0-.4.5m12.1-.2c.4.3.3.6-.1.6-.2 0-.3.2-.3.4s.1.3.5.3c.7 0 .7.1.1 1.7-.2.6-.4 1.2-.3 1.3.2.3-.6 1-1.3 1.2-.5.1-.6.2-.6.6 0 1-.2 1.2-.8 1.1-.4 0-.5 0-.5.5-.1.5-.1.5-.8.2-.8-.4-.7-.6.2-1.4.8-.8.8-.8.4-1.5-.3-.4-.5-.5-1-.5-.8 0-1.4-.4-1.4-1 0-.8.5-.8 1.2 0 .4.4.6.4 1-.1.3-.3.6-.4 1-.4.2 0 .6-.2 1-.6.6-.6.6-.6.2-2-.1-.7 1-1 1.5-.4m144.6-.1c.4.3.4 1 0 1-.3.1-1.4-.8-1.2-1 .1-.3.8-.3 1.2 0m50.9 0c0 .3-.1.4-.3.4-.1 0-.2-.1-.2-.3 0-.2 0-.4.2-.4s.3.2.3.4m-14 0c.8.3.2 1.1-.7.9l-.7-.2c-.3 0-.5-.2-.5-.4s.2-.3.5-.4h.6l.7.1m6.8.1c0 .4-.8.6-1.2.4-.2-.2-.2-.3 0-.5.5-.3 1.2-.2 1.2.1m15.1 0c0 .5-.3 1-.6 1s-.3 0-.1-.8c0-.6.7-.7.7-.2m77.5.1c-.2.4-.2.5.1.8l.4.5v.5c.1.5 1.3 0 1.7-.8.3-.4-.2-1-.8-1.1l-1-.2c-.2-.1-.3 0-.4.3m-185.2 0l.3.1c.1 0 .2 0 .2-.2l-.2-.1-.3.1m58.2.5c.3 1.2.8 1.8 1.8 2 .8 0 1.2.6.9 1.1-.5.8.5 1.5 1.3 1 .4-.2 1.7.5 1.7 1s-.7.5-1.1 0c-.6-.4-1.6-.5-2.2 0-.7.6-1.6.1-1.5-.8.1-.4 0-.6-.1-.8a.8.8 0 01-.3-.5l-.4-.4c-.3 0-.3-.2-.2-.8.1-.8 0-1.1-.8-1.1-.5 0-.5 0 0-.8.3-.7.8-.7 1 0m88.7 0c.4.3.6.5.5.7-.2.4-.4.3-.5 0-.1-.4-.2-.4-.5-.3-1.2.3-1.6 0-.8-.5.7-.5.7-.5 1.3 0m-176.6.8c-.1.9-2.9 1.7-2.9.8 0-.2.3-.5.4-.5l1.4-.5c1.3-.6 1.3-.6 1.1.2m204.1-.3c0 .4-.1.5-.4.2-.3-.3-.3-.7 0-.6.2 0 .4.2.4.4m-223.8.3c.5.5.6.6 1.1.5.7-.1.7 0 .2.8-.4.7-.4.8-.6.2-.2-.5-.4-.5-1-.2-.3.2-.5.2-.9 0-.4 0-.5 0-.8.2-.5.5-.8.2-1-1-.2-.6.1-1 .3-.5 0 .2.3.3.5.3l.6.1c.3.3.8-.2.8-.6 0-.5.2-.4.8.2m248.4-.3c-.3 1.3 0 2.2.8 2.2.6 0 1-1.4.6-2.1-.2-.5-1.2-.5-1.4 0m-355.5 0c-.3.3 0 .8.5.8s.6-.3.2-.7c-.3-.3-.5-.4-.7-.1m16.5 0c-.2.4.1 1.2.4 1.2.4 0 .5-.8.2-1.2-.3-.3-.5-.3-.6 0m33 0c.3.2.8.2.9 0 0-.1-.1-.2-.5-.2-.3 0-.5 0-.4.2m159.8 0c0 .2.1.4 0 .4 0 .2-.9-.3-.8-.5.2-.2.5-.1.8.2m130.2 0c-.1.3 0 .5.5.5.3 0 .4 0 .4-.3 0-.5-.7-.7-.9-.3m-292 .2l.1.3.2-.1-.2-.3-.2.1m18.3.4c.4.4.4.7 0 .7-.5 0-1.3-.8-1.2-1 .2-.4.7-.3 1.2.3m45.5 0c-.2.3-.4 0-.4-.3 0-.4 0-.4.2-.1.2.1.3.3.2.4m112.2-.4c0 .3-.8.9-1 .7l.4-.5c.6-.5.6-.5.6-.2m49.2 0c0 .3-.8.8-1 .7-.3-.2-.2-.6.2-.8.4-.1.7-.1.8.2m4.8-.2c0 .1 0 .2-.2.2-.1 0-.3 0-.4-.2l.3-.1.3.1m27.8.2l-.3.3c-.3 0-.3 0-.1-.3.2-.4.5-.4.4 0m31 .5c0 .3-.8.2-.9 0-.2-.6 0-.9.5-.6.3.2.5.4.5.6m-263.1-.5l.4.4.5.3c.3.2.5.4.4.6-.2.3-.5.2-.6-.2-.1-.4-.2-.4-.5-.4-.4.1-1-.3-1-.6s.2-.3.8 0m18-.1c-.1.2.6.5.8.3v-.3c-.1-.2-.7-.2-.8 0m23.4.2c0 .3-.4.4-.6 0 0-.2 0-.4.4-.4l.2.4m164.2 0l.3.6.3 1c.4.8.4.9 0 .9-.2 0-.4-.2-.6-.6l-.6-1c-.5-.7-.5-1.3 0-1.3.2 0 .5.2.6.4m-162 0c.2.3.2.4 0 .5a2 2 0 00-.5.7c-.2.4-1.4.8-1.7.5-.3-.3 0-.6.4-.5.3.1.3 0 .2-.2-.2-.5-.2-.6.3-.7.2 0 .5-.1.6-.3.3-.3.4-.3.7 0m58.8 0c.3.3.2.7-.2 1.1-.2.4-.3.4-.5.2a.8.8 0 00-.5-.2c-.5 0-.6-.5 0-1 .5-.3.9-.4 1.2-.1m-93.7.6c.3.7.8 1 1.2.6.6-.5 1-.1 1 .7-.2 1-.2 1-.6.7-.2-.1-.7-.2-1.5-.2-1 0-1.1 0-1-.3v-1-.5c-.2-.1-.2-.2 0-.4.3-.4.7-.3 1 .4m38-.2v.9c.1.4 0 .5-.1.5-.2 0-.3 0-.2-.2 0-.3-.4-.5-.6-.4-.3.2-.2.6 0 .6.3 0 .3 0 0 .5-.2.5-.2.9 0 1.1.4.4.8.3 1-.2 0-.2.3-.4.4-.4l.6-.3c.3-.2.3-.2.8 0 .2.2.5.3.7.3.2 0 .2 0 0 .6-.3.3-.3.4.3.8.4.4.5.6.5.8-.1.4 0 .4.6.4 1.4 0 1.5.4.2.8-1 .4-1.5.3-1.6-.4-.3-1.6-2.3-3-2.6-2-.2.6-1.7.5-1.8-.1 0-.7-.4-.7-.7 0-.5 1-.9.7-.6-.3.2-.5.3-.6 1-.8.8-.2 1-.5.7-.8-.3-.4-.2-1.4.2-1.6.7-.4 1.1-.3 1.1.2m180.3 0c.2.2.3.3.4.1.5-.4 1.3.3 1 1 0 .4-.2.4-.8-.2-.4-.4-.6-.4-1-.4-.5.1-1-.4-.8-.8.2-.3 1-.1 1.2.2m46.1 0c0 .3.2.4.4.4s.3-.1.4-.4c0-.3 0-.3-.4-.3s-.4 0-.4.3m4.3 0l.3.3c.4 0 .3-.5 0-.6-.2 0-.3 0-.3.2m-213 .3c.3.3-.2.6-1 .6-.5 0-.6-.1-.4-.7.1-.3 1-.2 1.4.1m39.7-.1c.4.3.4.4-.1.4-.4 0-.7-.2-.5-.5.1-.2.3-.2.6 0m132 0c.3 0 .3 1 .2 1.6 0 .4-.8.8-1.3.6-.5 0-.5-.2 0-1l.4-.9c0-.4.4-.6.8-.3m-80 .3c.4.7-.2 1-.7.4-.2-.2-.2-.4 0-.5.2-.3.5-.2.7.1m74.1 0c.2.2.3.2.6 0 .4-.2.5-.2.5.3s-1 1.6-1.5 1.5h-.4c-.2.4-.4.2-.4-.2l-.2-.8c-.5-.9.6-1.5 1.4-.8m-216.5 0c0 .2.3.3.3 0l-.2-.1c-.1 0-.2 0-.1.1m197.4.2c0 .2 0 .3-.2.4-.2 0-.3.2-.3.4s0 .4-.2.4c-.3.1-.3.2-.1.3.1.2.2.2.4 0s.8-.2.8 0l-.4.4c-.3.2-.5.5-.5.8l-.1 1.2c-.3 1.4 1 2.4 1.5 1.1.1-.3.2-.3.6-.3h.4v1.4c0 1.4.5 2.4 1.2 2.4.3 0 .5.5.3.7l-.5-.1c-2-1-2.6-1-2.6 0 0 .7-.4 1-.8.9-.2-.1-.2-.3-.1-.9.3-1.5.1-2.5-.4-2.7-.3 0-.5-.2-.5-.3 0-.2-.1-.3-.3-.4-.3 0-.3-.2-.3-.4.1-.5-.1-.9-.4-.7-.5.1-.3.8.2 1.3.6.7.6.7-.3.7l-1.2.2c-.5.3-.8.1-.8-.4 0-.3 0-.4.5-.4.8 0 .9-1 0-1-.4 0-.5-.2-.7-1.1-.3-1.3-.2-1.4 1.3-1.5 1.7 0 2.4-.4 1.9-1-.4-.4-.2-.9.6-1.3 1-.5 1-.5 1-.1m11.1-.2c.4.1.3.5-.1.6-.2 0-.4.2-.4.4-.1.4-.2.5-.5.2-.6-.6.2-1.5 1-1.2m16.3.3c-.3.3-.4.4-.2.7l.2.8c0 .6.3.5 1-.3.7-.7.7-.8 0-1.4-.4-.3-.4-.3-1 .2m-72.2.2c0 .4-.4.8-.6.7v-.6c.3-.6.6-.6.6 0m81.6 0c.1.7-.2 1-.8.8-.5 0-.5 0-.3-.5l.2-.6c.2-.5.9-.3 1 .3m48.5-.3c0 .2.4.4.5.3v-.3c-.1-.3-.5-.3-.5 0m-231 0v.3c0 .1-.5 0-.5-.3 0-.2.4-.1.6 0m135.4.4c0 .2-.1.3-.3.3-.2 0-.3-.5-.1-.7.1-.2.4 0 .4.4m87.5-.3c0 .2.6.5.7.4.1-.2-.2-.6-.5-.6-.1 0-.2 0-.2.2m-346.9.2c0 .3 1.2 1 1.4.8 0 0 0-.3-.2-.5-.3-.5-1.2-.7-1.2-.3m61.8 0c0 .3-.4.3-.4 0 0-.1 0-.2.2-.2s.3 0 .2.2m96.8 0l-.4.1c-.2 0-.3 0-.3-.2l.5-.1c.2 0 .3 0 .2.1m73.5.6v.7c-.2 0-.2-.4-.2-.8l.1-.6.1.7m-12-.4c.3.2.2.5-.2.5-.3 0-.4-.1-.4-.3 0-.4.1-.4.5-.2m36.8 0c.5.4.2.7-.4.6-.8-.1-.8-.1-.4.5.2.3.4.4.7.3.6 0 1.3.5 1.3 1 0 .2.1.6.3.8.5 1-.4 2.2-1.5 2l-.8.1c-.2.2-.4.1-1-.2l-.6-.3-.5.4c-.7.4-1 .3-1-.4 0-.4-.1-.6-.2-.6l-.2-.3c0-.3 0-.3.3 0 .3.5 2.5.7 3 .3l.8-.4.4-.3c.2-.4 0-.5-.2-.2-.3.3-1.1 0-1.1-.5s-.4-.8-1.2-.8c-1 0-1-.5 0-1.4.8-.8 1.7-1 2.3-.5m34.2.3c.3.7.2.9-.5.7-.6-.2-.8-.6-.5-1 .4-.4.7-.3 1 .3m-242 .2c0 .4.1.6.4.8.4.1.8.6.5.6-.3 0-1.1-.4-1.2-.5 0-.1-.2-.2-.3 0-.1 0-.2.1-.1.2.2.3-.1 1-.4 1-.5 0-.5-.2-.2-1l.3-.8c0-.5.4-.9.7-.9.3 0 .3.1.3.6m23.2-.3c-.2.5-.2.6.2.5.2 0 .4-.2.4-.4 0-.4-.4-.5-.6 0m9.7 0c-.2.7.5 1.1 1 .7.4-.4.4-.7 0-.8-.7-.2-.9-.2-1 .1m84.6.2c.1.4-.2 1-.5 1s-.4-.5-.1-1c.2-.3.4-.4.6 0m-158.4.1c-.2.4 0 .8.4.8.4-.1.4-.9 0-1-.2 0-.3 0-.4.2m53.5 0c0 .2 0 .5-.3.6-.5.4-.6.4-.6 0v-.5c-.2-.2 0-.2.3-.2s.6 0 .6.2m63.5.3c0 .5-.4.8-.8.7-.2-.1-.2-.2 0-.7.4-.7.8-.7.8 0m4.6-.2c0 .2-.2.3-.3.3-.4 0-.5-.5-.2-.6.3 0 .5 0 .5.3m194.7.1c.4.5.5.6 1 .4 1-.4 1-.1.4.5-.7.7-.9.7-1 .3l-.7-.8-.5-.7c.2-.3.2-.2.8.3M45.6 85c-.2.2 0 .5.3.5s.5-.4.3-.6c-.1-.1-.5 0-.6.1m105.5.4c.5.6.3.8-.7.7-1 0-1-.2-.6-.8.5-.6.8-.6 1.3 0m234.3-.2c0 .4 0 .9.3.9s.7-.5.6-.8c0-.4-.7-.5-.9 0m-242 0c.1.2-.4.5-.9.5-.6 0-1-.2-.8-.5.2-.2 1.4-.1 1.6 0m74.8.1c0 .2.2.4.4.5.4 0 .7 1.6.4 2-.4.6-.9.1-.9-.8 0-.3 0-.5-.2-.5-.3 0-.5-.8-.3-1.2.2-.4.4-.4.6 0m5-.1c.1.2-.2.6-.5.6s-.3-.3 0-.6c.2-.2.3-.3.5 0m20.1 0c.1.3.2.3.4.1h.3c.2.1 0 .5-.4.6-.2 0-.5.2-.7.5l-.2.6s-1-1-1-1.2l.3-.1c.3 0 .5-.2.6-.4.2-.4.6-.4.7 0m24.8 0c.5.4.4.5-.3.5-.9-.1-1-.3-.6-.6s.6-.3 1 0m-182.9.4l.1.5c.4.5.2 1.3-.5 1.4l-.8.4c-.2.2-.3.2-.5 0-.3-.2-.2-.6.2-.8.3 0 .5-.3.6-.7 0-.5.7-1.3.9-1.1v.3m27.7-.3c-.2.2 0 .5.2.5.1 0 .2 0 .2-.2 0-.3-.2-.5-.4-.3m135.7.1c0 .2 0 .4-.3.4l-.1-.3c0-.4.2-.4.4-.1m124.2 0c-2.3 1.3 0 4.2 2.8 3.4.8-.2 1.6-1 1.6-1.6 0-1.5-2.7-2.6-4.4-1.7m7.4-.1c0 .5.9 1.1 1 .7.2-.4-.2-1-.6-1-.2 0-.4.2-.4.3m-257.2 0c0 .4-.2.8-.4.7-.2-.2-.1-.8.2-.8l.2.2m93.5.3c.5.4.6 1 .3 1.5-.2.5-1 .5-1.7 0-.6-.7-2.3-.5-2.7.2-.3.6-.3.6-1.9.2-1-.2-.6-.6.5-.6a7 7 0 003.8-1.1c.2-.3.6-.5.8-.5l.4-.1s.3.1.5.4m102.8 0c0 .5-.2.8-.5.6-.1 0 .2-1 .4-1l.1.4m-86.6.2c0 .6-.4 1-.8.7-.7-.4-.3-1.2.5-1.2.2 0 .3.1.3.5m32.8.6h.7c.4-.4.6-.3.8.1.4 1 1.9.6 1.7-.4 0-.1 0-.1.2 0 .3 0 .3 1.1 0 1.7l-.2 1c0 .2-.2.3-.6.5-.7.3-.8.9-.1 1.5.6.5.4.8-.4.8-.4 0-.6 0-.8-.4-.3-.4-.3-.6 0-1.1.2-.2.2-.3 0-.5s-.6.1-.6.6c0 .3-.3.4-.5 0-.5-.6-.9-.6-1.6-.2-1 .5-1.2-.5-.2-1.6.4-.3.4-.5.3-.7-.4-.5-1.4 0-1.4.6 0 .7-1 1.4-1.2 1-.2-.3.2-1.5.5-1.6l.2-.3c0-.6 1.5-1 1.8-.6.2.4.8.2.7-.3v-.9l.3-.4v.5l.4.7m-164.7-.7c0 .5-.5.7-.8.4-.2-.3-.2-.3 0-.5.4-.2.8-.2.8.1m244.6 0c.1 0-.2.4-.7.5l-.4-.1.4-.4c.5-.3.6-.3.7 0m-55.3.2c0 .1 0 .4.2.6.4.3.7.4.7.1l-.2-.1-.1-.5c0-.4-.5-.5-.6-.1m-215.8.2c.1.3-.4.7-1 .7-.5 0-.6-.4-.3-.8.3-.3 1.2-.2 1.3 0m119 0l-.2.1-.3-.1c0-.1.1-.2.3-.2.1 0 .2 0 .2.2m156.6 0c.2.3-.5 1-.7.7-.2-.1-.2-.3 0-.5.2-.4.5-.5.7-.2m38.6 0c-.3 0-.2.4.2.6.4.2.6.1.6-.2 0-.3-.5-.6-.8-.5m-221.6.3c.2.2.3.3.1.3-.3.2-.7 0-.7-.3s.2-.3.6 0m201.1.1c0 .2.2.4.3.4.4 0 .3-.6 0-.7-.3 0-.3 0-.3.3m-236.8.2c0 .3-1.2.9-1.3.7-.2-.1.1-.4.4-.4l.4-.3c.2-.4.6-.4.6 0m17-.3c.3.2-.2 1-.7 1.2-1 .5-1-.3 0-1 .5-.3.6-.3.8-.2m27.4.3c.5.5-.2 2-1 2.2-1.2.3-2-.2-1.3-.8l.2-.9v-.7h.8l.9-.1s.3 0 .4.3m70.5 0c0 .4 0 .5-1 .8l-.9.3c-.1 0-.2 0 0-.5.2-.6.3-.8.5-.5.2.3.6.2.7-.1.1-.5.5-.5.7 0m-153 0c.5.3 1.9 1.6 1.9 1.8 0 .3-.4.3-.8 0-.2-.1-.6-.2-.8-.1-.3 0-.5 0-.8-.6-.5-1-.3-1.5.6-1m9.5.5c.5 1 .5 1.3.2 1.7-.3.3-.3.4 0 .8.3.7.2.9-.3.3-.4-.4-.6-.5-1.5-.7-.9-.2-.9-1.3 0-1.7.2-.1.5-.4.6-.7.4-.7.4-.6 1 .3m3.4-.5c.2.3.1.5-.2.5-.2 0-.3-.1-.3-.4 0-.5.3-.5.5 0m177.9 0c0 .5-.4 1.3-.7 1.3-.2 0-.2-.6 0-1.2.4-.6.7-.6.7-.1m-218.6 0c.3.3.3.4-.2.4-.6 0-1-.1-.7-.4.2-.3.7-.3 1 0M191.5 88c-.2.3-.3.3-.6 0-.4-.4-.4-.8 0-.8.2 0 .4-.1.5-.3.2-.4.3-.4.3.2 0 .5 0 .8-.2 1m102.5-1.4c.1.3-.4.6-.6.4-.1 0-.2-.3 0-.4 0-.2.4-.2.6 0m60 .1c-.1.4 0 .6.4.6.5 0 .6-.3.2-.6-.4-.3-.5-.3-.6 0m-172.6.5c0 .6-.2 1-.4.6-.1-.2 0-1.2.3-1.2l.1.6m68.4-.3c.4.3.3.4-.1.4-.5 0-.7-.2-.6-.5.2-.2.3-.2.7 0m119.6 0c-.3.3-.2.7.2 1 .4.4.8.4 1-.1.5-.7-.6-1.4-1.2-.9m-301.7.2c.3.3.2.5-.3.5-.3 0-.5-.1-.5-.3 0-.4.5-.6.8-.2m19.5.1c0 .2.2.4.3.4.1 0 .2 0 .2.2 0 .3 0 .3-.7 0-.5-.2-.6-.3-.4-.6.2-.4.4-.4.5 0m146.5 0l-.4.6c-.3.3-.3.6-.2 1 0 .7-.2.8-.7.3-.6-.5-.7-1-.2-1.2.2 0 .6-.3.8-.6.4-.4.7-.5.7-.2m-114.6.4c.1.5-.7 1-1 .7-.4-.3-.3-1 0-.9h.5c.2-.3.5-.2.5.2m45.9-.2c0 .6-.3.9-.4.5-.1-.4 0-.7.2-.7.1 0 .2 0 .2.2m29.3.2c0 .5-1 1.6-1.5 1.6s-.4-1 .1-1.1c.2 0 .6-.3.7-.5.4-.6.7-.5.7 0m77.1-.2c.4.4.3.8-.2.9-.2 0-.4.2-.4.4 0 .6-.5.5-.6-.1-.1-1.2.6-1.8 1.2-1.2M60.7 88c.1.2-.8.5-1 .3-.2 0-.3-.6-.1-.7.1-.2 1 .2 1.1.4m204.4-.4c-.2.2 0 .5.4.5.3 0 .6-.3.5-.4-.2-.2-.8-.3-1-.1m-242.2.4c-.3.4 0 .8.4.8.5 0 .7-.5.4-.8-.2-.3-.5-.3-.8 0m155 0c.2 0 .4.2.4.3l.1.6c.2.5.1.6-.2.7-.2 0-.6.4-.8.8l-.7.7c-.5 0-.7.5-.3.9l.4.3-.4.4c-.2.3-.3.5-.3.8.2.7-1.7 1.2-2 .6-.8-1.5-1-2.2-.6-2.2s.6.4.5.8c-.1.5.2.5.5 0 .4-.7 0-1.7-.6-1.4 0 .1-.3.1-.4 0-.6-.2.1-.5 1-.5 1 0 1.5-.4 2-1.5.1-.3.2-.4.6-.3.6.2.8-.4.3-.8-.6-.4-.2-.6.5-.2m57.4.1c0 .2-.1.3-.4.3-.3 0-.5-.2-.4-.5.2-.3.8-.2.8.2m-100.3 0c.2.2.5.3.9.2.5-.2.7-.1 1 .1l.7.4c.4 0 .7.3.7.7 0 .3-.8.6-1 .3-.4-.3-.8-.2-.6 0 .3 1 .3 1 0 1.2-.2 0-.4 0-.7-.3l-.7-.4a.7.7 0 01-.5-.3 1 1 0 00-.6-.3c-.5 0-.6-.6-.1-.7.3 0 .3-.2.1-.3 0-.2-.3-.2-.4-.2l-.5-.1c-.2-.2-.2-.2.2-.3.8-.2 1.2-.2 1.5 0m70.9.1c.1.4-.3 1.6-.6 1.5-.2 0-.3-.2-.2-.6 0-1 .5-1.5.8-.9m90 0c.2.1.2.3.1.3-.1.2-.6 0-.6-.3s.3-.3.5 0m16.5.2c0 .6-.4.9-.7.6v-.6c.4-.6.7-.6.7 0m19.2-.3l-.4.4c-.6.5-.4.8.5 1.2.6.2.7.3.7.8 0 .4 0 .5.4.4.2 0 .3 0 .3.2-.1.4-1 .4-1.4 0-.4-.5-.8-.6-1-.4-.3.3-1.3.5-1.6.4-.5-.3-.4-.5.2-.5.6 0 1-.9.9-2v-.7h.7c.4 0 .7 0 .7.2m18.8.2l-.1.8c0 .3 0 .4-.2.5-.2 0-.3 0-.3-.2 0-.4-.3-.5-.8-.2-.7.4-.8.2-.4-.6.3-.6.3-.6 1.2-.6.7 0 .8 0 .6.3M50 88.2l-.1.4c.2.2.6 0 .6-.3 0-.4-.2-.4-.5 0m328 0c-1 .7 1 2.9 2 2.1.7-.4.6-1-.1-1.8-.7-.6-1.3-.8-1.8-.4m-271.9.2c.2.4.2.4-.2.6-.4.2-.7-.2-.3-.6.2-.3.4-.3.5 0m275.8 0c0 .2-.1.5-.3.7-.3.5 0 1 .6.9.8-.1.7-1.8 0-1.8-.2 0-.3 0-.3.2m-234.1.1c1 .6 1.8 1.2 1.7 1.4-.1.5-.6.5-1 .1-.4-.3-.5-.4-.8-.2-1 .7-1.6-.4-.6-1.3.3-.2.2-.2.7 0m149.9 0c.3.3.1.7-.3.4-.3-.2-.4-.6-.2-.6l.5.3m39.2.1c0 .5-.3 1.4-.3 1.1l-.3-.7v-.6c.3-.3.6-.2.6.2m-97 .8c-.3 0-.7-.5-.7-.8l.4.2c.3.3.4.5.3.6m114.3-.6c0 .4.8.7 1 .5.3-.3 0-.7-.6-.8-.3 0-.4 0-.4.3m-321.8 0l-.4.4.7.3c.7.3.7.4.9 0 .4-.8-.4-1.3-1.2-.6m88 0c0 .2-.1.3-.3.3 0 0-.2-.1-.2-.3 0-.2.1-.3.3-.3 0 0 .2.1.2.3m215 .2c0 .8-.3 1-.9.7l-.4-.4c0-.1-.2 0-.4 0-.5.4-.6.4-.7 0-.2-.4.2-.7.7-.6h.6c.3-.5 1-.2 1 .3m-191 0c0 .5.1.7.6.9.2 0 .3.2.3.5 0 1 1.3 2.5 2.2 2.8.2 0 .4.3.4.4.1.4.7.8 1 .6l.8.3 1 .5c.3 0 .3 0 0 .3s-.4.3-.9 0c-.7-.3-1-.2-1.1.4 0 .2-.1.5-.3.5-1.3.4-1.5.5-1.6.9-.1.2-.4.4-.9.6-1 .3-1 .3-1-.7 0-.6-.1-.8-.4-1-.4-.2-.4-.8 0-1 .1 0 .3 0 .5.4.8 1 2.1 0 1.7-1.3-.3-1-3-1-3 0 0 .4-1.4.4-2-.1-.7-.7.8-2.8 1.6-2.4.5.3 1.2.2 1.3 0 .2-.5-.3-1.6-.7-1.8-.6-.3-1 0-.5.5.4.4.2.7-.3.6-.4-.2-.3-1 .2-1.5l.4-.6c0-.1.1-.2.3-.2.2 0 .3.1.3.4m63.5-.2c.1.2.5.5 1.4 1 .3 0 .5.3.5.4h.3c.4 0 .5.1.6 1.1 0 .9-.2 1.1-.5.5-.2-.6-.6-.6-1.7-.2-1 .4-1.4.3-1.4-.2 0-.2-.2-.3-.3-.3-.3 0-.4 0-.4-.4 0-.3 0-.7-.2-.9-.4-.4-.2-.7.4-.7.3 0 .5 0 .5-.2 0-.3.6-.4.8 0m51.2 0c.6.6.3 1.4-.8 2-.7.3-1.4.3-1.5-.2 0-.5.5-.8 1.2-.6.7 0 .8-.1.2-.7-.3-.2-.4-.5-.4-.6.2-.3 1-.2 1.3.1m-165.4.2c0 .1 0 .2-.2.3-.3.1-.4 0-.3-.3.1-.3.4-.3.5 0m178.5 0c0 .3-.7 1.5-.9 1.5l-.5-.4-.4-.4.4-.4c.7-.5 1.4-.7 1.4-.3m-248.7 0c-.1.3 0 .5.4.5 0 0 .2-.1.2-.3 0-.3-.4-.5-.6-.2m136.6.2c0 .3.2.4 1 .4 1 0 1.1 0 .7.7-.2.4-.8.5-1 .2 0-.2-.4-.2-.4 0 0 .3-.5.9-.6.9-.1 0-.2-.4-.1-1l-.1-1c-.3-.1-.2-.5.2-.5.2 0 .3.1.3.3m-82.2.1l.4.4-.4.2c-.6.4-.8.4-.9-.1-.2-.8.2-1 .9-.5m275.9.3c-1 1-.6 2.2.4 1.5l.8-.2c.5 0 .7-.4.5-.8-.1-.2-.4-.3-.7-.3-.5 0-.5 0-.4-.3.1-.6 0-.6-.6 0M39 90.3l.4.4-.6.7c-.6.8-1 .9-1 0l-.1-.5c-.3-.2-.2-.7 0-1 .4-.3.7-.2 1.3.4m24.9-.3c1.4.5 1.6.6 1.5.9v.5c0 .2-.1.2-.4 0l-.7-.1-.8-.4-.6-.3c-.6 0-.8-.3-.6-.6.3-.5.5-.5 1.6 0m103.7-.2c.3.3.3.3 0 .7-.5.4-.5.6-.2 1 .8.6-.6 1.4-1.4.8-.5-.4-1-.5-1-.2l-.4.2.2-.5c.2-.2.5-.4.6-.3.7.1 1.1-.3 1-.8-.2-1 .5-1.4 1.2-.9m14.7.4l.2 1c.2.3-.3.9-.5.6l-.2-2c0-.5.5-.2.5.4m74-.2c0 .1 0 .3-.2.3-.3 0-.6-.4-.5-.6.2-.2.6 0 .7.3m61 0c.6.6.6.7-.6 1.2-.9.4-1.5 0-1-.6l.4-.6c.1-.6.7-.5 1.3 0m6.5.1v.8c-.1.8-.6 1-1.1.4l-.7-.5c-.2 0-.4-.5-.2-.7h2m-20.9.2l.3.1.2-.1c0-.1-.1-.2-.3-.2 0 0-.2 0-.2.2m-71 .6c0 .2 0 .2-.3 0l-.2-.4c0-.2 0-.2.3 0l.2.4m124.5-.5c-.3.2.2.6.6.4.3-.1.3-.3 0-.4-.3-.2-.3-.2-.6 0m-324 .2c0 .2.3.4.5.2.2 0 0-.4-.2-.4l-.2.2m26 .8l.4 1c-.2.3-1 0-1-.3 0-1-1.2-1-1.3-.1l-.5 1c-.7.8-.5 2.2.5 2.7.6.3.6.4-.2 1.3-.9 1.2-1 2.4-.2 2.7l.2.4c0 .2.1.4.3.4.3.2.3.4 0 .4-.6 0-1.4-.8-1.5-1.5-.1-.8-.2-.9-.5-.7-.5.1-.6.9-.1 1.2.3.2.2.7-.3.7-.7 0-1.2-1.5-.6-1.8l.5-.5c0-.2.2-.4.3-.4 1.2 0 2-2.3 1-2.6l-.4-.4-.3-.1c-.2 0-.3.1-.3.9 0 .2-.1.3-.4.3-.7-.1-.8-.3-.5-.7.5-.5.3-1.5-.5-2.4-1-1.2-.3-2.2 1-1.4.7.4 1.1.3 1.3-.4.3-1 2.2-.9 3 .3m25.5-.9c.7.2.6.3-.1.8-.4.2-.6.4-.5.6 0 .1 0 .3-.4.5-.6.3-.7.8-.2 1.4.5.6.3.9-.3.7-.4 0-.5 0-.7.4-.2.5-.2.6-.7.5-.8-.2-1-.5-.7-.8.2-.2.3-.5.2-.8-.1-.4.1-.5 1-.1.5.2.4-1.2-.2-2.3-.3-.6-.1-1 .4-.6.3.2.4.2.8 0 .5-.4.6-.4 1.4-.3m107.8.4c0 .2-.3.3-.5 0-.2 0 .2-.5.4-.4l.1.4m37.2 0c.2.4 1 .9 1.8.9.6 0 .7.1.3.5-.4.3-.3.8.2 1 .4.2.4.2 0 .5-.2.3-.4.3-.6.2-.2-.2-.4 0-.7.3-.6.6-1 .4-1-.4.1-.3 0-.5-.2-.6-.4-.3-.4-.7.1-.7h.4l-.3-.6c-.5-.9-1-1.2-1.6-1.2-.2 0-.4-.1-.3-.2.2-.4 1.7-.2 2 .2m139-.1c-.2.1-.2.2 0 .4.3.3.7 0 .5-.4-.1-.3-.3-.3-.6 0m15.4 0c-.4.3-.2 1.4.3 1.4l.3-.5c.3-.8-.1-1.5-.6-1m-230.7.1c.2.3-.4.6-.6.4v-.3c.4-.2.5-.2.6 0m-41 .8c0 .2-.9-.3-.9-.5l.2-.2c.3-.1.9.5.7.7m96-.6c0 .2 0 .3.2.2.3 0 .3-.4 0-.4-.1 0-.2 0-.2.2m30.4 0c.5.1.8.4.4.4l-.6.5c-.5.5-.9.3-.9-.5 0-.7.2-.8 1.1-.5m55.5.3c.2.3.3.4 0 .6-.2.4-1 .4-1.2 0l-.5-.4c-.4-.1-.4-.2-.2-.4.3-.4 1.4-.2 1.9.2m65.9 0c-.3.8-.3.8.4.6.3-.2.4-.3.4-.6 0-.5-.6-.6-.8 0m1.5-.1c-.3.5.4 1 .8.6.2-.2.2-.3.1-.6-.3-.4-.7-.4-.9 0m-198 .4c.5.7.3 1.8-.4 1.5-.3-.1-.8-1.5-.7-1.8.1-.1.9 0 1 .3m109.8-.3c0 .2-1.6 1.7-1.8 1.7l-.5.5-.5.5v-.5c0-.2 0-.4.2-.6l.2-.5c0-.4.3-.7.8-.7.2 0 .5-.1.5-.3.1-.2 1-.3 1 0m-187.3.4c.2.2.4.2.7.2.8-.2 1 0 1 .6s0 .6.6.5c.9-.2 1.1.5.5 1.4-.4.7-.4.7-1 .5-.7-.2-1.4.7-.8 1.1.5.3-1 1-1.5.8-.4 0-.4-.2 0-.6.3-.3.4-.3.6-.1.4.3.5.1.3-.7-.3-1.1-.3-1.2.4-1.1 1 0 1.2-1 .1-1.3-.3 0-.6-.3-.8-.5a.8.8 0 00-.7-.4c-.3 0-.5-.3-.3-.6.2-.2.7 0 1 .2m195.4 0c.6 1-1 1.6-2 .7-.6-.5-.5-.8.4-.7h1c.3-.3.4-.3.6 0m82.7.2c0 .3 0 .5.2.5.3 0 .3-.3 0-.7-.2-.3-.2-.3-.2.2m-288.4 0c0 .2 0 .3-.2.5-.5.3-.5.5 0 .6.1 0 .3.2.3.5 0 .4.3.8.7.8.1 0 .3 0 .3.2 0 .4-1.2.3-1.6 0-.2-.2-.3-.5-.3-1l-.1-.7c-.3-.1-.2-1 0-1 .4-.3.8-.2 1 0m4.6.3l-.3.6c-.4.2-.4.3-.2.9.3.8.2 1-.4.7-.6-.4-.7-.8-.2-1.4l.5-.8c.2-.4.6-.4.6 0m72.8-.2l-.2.2s-.2 0-.2-.2l.2-.1c.2 0 .3 0 .2.1m18.2.2l-.3.3c-.2 0-.3 0-.3-.3s0-.3.3-.3l.3.3m137.6 0c-.4.2-.7.2-.4 0 .1-.2.3-.3.5-.3s.2 0 0 .2m-242.3.4c.2.5.2.5-.4.3-.5-.1-.5-.1-.4-.5.1-.3.5-.2.8.2m27 0c.3.8-.3.7-.8-.1-.3-.3-.2-.4.1-.4.3 0 .5.2.6.5M169 92c.3.1.3 1 0 1.2-.7.6-1.4-.3-.7-1 .4-.4.5-.4.7-.2m9.1 0c.3 0 .3.1 0 .5l-.3.4-.3-.4c-.5-.6-.2-.9.6-.5m19.2.2c.3 1 0 1.6-.7 1l-.8-.3c-.3 0-.4 0-.4-.2s0-.3.3-.2l.9-.3c.5-.5.6-.5.7 0m117-.2l.6.4.4.1-.5.5-.6.5-.4-.3-.5-.4c-.4 0-.3-.3.2-.6.6-.4.7-.4.9-.2m-88 .7c.6.7.7.8.5.9-.2 0-.4 0-.6-.2l-.5-.2c-.1 0-.2-.1-.2-.3l-.3-.4-.2-.4c0-.3.5 0 1.2.6m73.2-.4c.4.2.4.3.3.3-.2 0-.3.2-.4.3-.1.3-1.3.4-1.3.2l.8-1.1.6.3m-120.4 0c0 .1-.1.2-.3.2 0 0-.2 0-.2-.2l.3-.1.2.1m19.6.3c0 .4-.4.5-.4 0 0-.1 0-.3.2-.3s.3.1.2.3m53.2 0c.3.2.2.6-.1.6-.4 0-1-.5-1-.7.2-.2.9-.2 1.1 0m25.5.3c0 .3-.6.7-.8.5-.1-.2.5-1 .7-.9l.1.4m62.2.1c0 .5 0 .5-.6.4-1-.1-1-1-.1-1 .6.1.6.2.7.6m5-.2c0 .1 0 .3-.2.4l-.1-.3.1-.5.2.4m16.2-.1c-.5.2-.7.9-.3 1 .4.2 1.1-.2 1.1-.6 0-.5-.4-.7-.8-.4m13.8 0c0 .3.9 1.2 1.3 1.3.5 0 .5-.5 0-.8-.3 0-.5-.3-.5-.5-.1-.3-.8-.4-.8 0m-271.2.2c.5.4.5.5-.2.7-.4.1-.5.1-.7-.1-.6-.8.1-1.2.9-.6m238.8.3c0 .5-.6.5-.6 0s.1-.6.4-.5c.2 0 .3.3.2.5m-188 0c.2.4.4.6.3.8l-.4-.2-.6-.7c-.5-.6 0-.4.6.2m-61.8 0c.1.3 0 .3-.3.5-.9.3-1.4 0-1-.5.4-.4 1-.5 1.3 0m203.7 0l.3.9c.1.3.3.5.6.6.5.2 2 1.9 1.8 2.2 0 .3-1 .5-1.2.3 0-.1 0-.3.2-.5.4-.5.3-.7-.2-.7-.6 0-.8.2-1 .9 0 .7-.4.8-.4.1 0-.8-.6-1.2-.8-.5 0 .3-.2.6-.4.6s-.3-.3-.9-1.5l-.6-.8c-.5-.2-.6-.7-.2-1 .4-.1.7 0 .7.3 0 0 .2.3.5.4 1 .4 1.5 0 1-.9-.5-.8.1-1.1.6-.4m75.3-.2c-.1.3 1 1.3 1.5 1.3s.3-.6-.3-1c-.7-.5-1-.6-1.2-.3m-360 .1c0 .2.1.4.5.4.2 0 .3 0 .3-.2-.1-.2-.5-.4-.7-.2m123 .2c.4.2.4.3.1.5-.5.4-1 .3-1-.2 0-.7.3-.8 1-.3m201.8-.1l-.7.1c-.6 0-.6 0-.8.8-.1 1 0 1 .8.9 2-.4 2.4-.9 1.6-1.6-.5-.4-.7-.5-.9-.2m48.7 0c-.1.2.7 1 1 1 .4 0 .3-.5 0-.9-.4-.3-.8-.4-1-.1m-246.4.2l-.3.2c-.2 0-.3-.1-.3-.2s0-.2.3-.2c.2 0 .3 0 .3.2m2 0c.2.2.2.6 0 .6-.4 0-.9-.4-.8-.6.2-.3.5-.3.8 0m24.8.1c0 .2.3.4.5.4.3.1.3.2.2.3-.1.1-.3.1-.5-.1-.3-.3-.5-.3-1 .1-.5.3-.6 0-.3-.5.4-.6 1-.7 1-.2m150.4 0c.2.3-.2.6-.5.4-.3 0-.3-.1-.1-.3.2-.3.4-.3.6 0M51 93.5c.3.1.3.4 0 .8-.4.3-.2.6.2.3.4-.2.9-.3.9-.1L51 95.7c-.7.3-1.3-1.4-.6-1.9.4-.3.3-.3.7-.2m302.2.6c-2.5 1.8-2.5 1.9-2.2 3.6 0 .9 0 1-.2 1.4-.4.7-.3 2.3.1 2.9.5.6 1.9.6 3 0l1.3-.3c1.3 0 1.5-1 .8-3.2-.1-.5-.1-.7.1-1.2.2-.3.3-1 .3-1.4l.1-.8c1 .5 1.4.9 1.3 1.4-.2 1 .7 1.3 1 .3l.2-.5c.2-.1.2-.2.1-.2l-.3-.1h-.4c-.1 0-.2-.3-.1-1 .1-1.5-1.5-2.4-1.8-.8-.2.7-.3.7-.7 0-.2-.5-.8-.8-1.4-.8l-1.2.7M42 94.3c.2.6-.3.8-1 .2l-.4-.3.4-.3c.5-.3.7-.3 1 .4m270.3-.3c.4.2.5.7 0 .7-.4 0-.7-.3-.6-.6.1-.3.2-.3.6 0m-195.4.4l-.1.2c-.2 0-.4 0-.5.2-.2.3-.9.3-1.4.2-.2-.1-.2-.2.3-.5.6-.4 1.5-.4 1.7 0m41.7-.3c0 .1 0 .2-.2.3-.3.1-.5 0-.3-.3.1-.2.3-.2.5 0m157.7.2c0 .4-.5.3-.6 0 0-.3 0-.3.2-.3s.4.2.4.3m-278.5 0c0 .2 0 .4-.2.5-.3.2-2 .4-2 .2 0-.3.5-.5.9-.5l.7-.2c.3-.2.6-.2.6 0m8 .1c.1.2.2.4.1.6l.1.6c.2.4-.4 1.2-1 1.2-.2 0-.3-.4 0-.6.3-.1.3-1 0-1.3-.4-.5.2-1 .7-.5m110.6 0c.6.8.2 1.2-.7.8a12 12 0 00-.8-.3c-.5-.2-.4-.6.2-.5h.6c.1-.4.4-.3.7 0m171.4 0l.1.3c.2.2.8-.2.6-.4-.1-.2-.5-.2-.7 0m-194 .5c.4.6.3.8-.4.8-.8 0-1.2-.6-.6-1 .5-.4.5-.4 1 .2m48.6-.1v.5c-.2 0-.2.2-.2.4s-.1.3-.3.3l-.2-.3c0-.3-.1-.4-.6-.4-.4 0-.7-.2-.7-.3h.6c.4 0 .6 0 .8-.3.4-.4.6-.4.6 0m136.3.3c-.2.3-.6.3-.6 0 0-.2.3-.4.5-.3v.3m24 0c.2.2.2.3 0 .3-.4.2-.8-.1-.6-.4.2-.2.4-.2.6 0m-134.9.2c.5.4.8 1.3.6 1.5-.2.2-.3.1-.4-.1l-.7-.9c-.6-.7-.3-1 .5-.5m162 0c0 .3.5.6.7.4v-.3c-.2-.4-.6-.4-.6 0m3.2 0l.1.5c.4.3.9.1.8-.3 0-.5-.7-.7-1-.2m-345.4 0c-.8 1-.2 2 .7 1.5.7-.3.7-1.5 0-1.6-.3 0-.6 0-.7.2m149.4 0l-.1.3c-.1 0-.2-.1-.2-.3 0-.1 0-.2.2-.2l.1.2m-94 .6c.5.7.5 1 0 1-.5.2-1-.2-1-.8-.2-.8.5-1 1-.2m48-.3l-.1.3-.3-.3c0-.1 0-.2.2-.2.1 0 .2.1.2.3m237.7 0l.2.4c.4.2.5-.1.1-.5-.3-.2-.3-.2-.3 0m-303.9.4c0 .1 0 .2-.2.2a.3.3 0 01-.2-.2c0-.3.3-.3.4 0m57.3 0c.1.2 0 .3 0 .4-.3.3-1.2-.1-1.2-.4 0-.3 1-.2 1.2 0m2.9 0c.1.2-.3.9-.6.9-.5 0-1-.6-.6-.9.2-.2 1-.3 1.2 0m-91.1 0c0 .2-.1.2-.3.2l-.3-.1c0-.1 0-.2.2-.2s.4 0 .4.2m46.4.1c0 .1 0 .2-.3.2-.5 0-.6-.2-.3-.4.3-.1.5 0 .6.2m73.3.1c0 .1 0 .4.2.6.3.5.3.8 0 .8-.7 0-1-1-.6-1.6.2-.3.5-.1.4.2m188.2 0c.2.4-.1.7-.6.5-.5-.1-.5-1 0-.9.2 0 .5.2.6.4m-291.3 0c0 .2 0 .3-.2.4-.3.3-.4-.1-.2-.4.2-.1.4 0 .4 0M68 97c1 .5 1.6 1.4.7 1.2-.5-.2-1.4.2-1.4.5l-.1.2c-.1 0-.2-.1-.2-.3 0-.2-.2-.4-.4-.5-.5-.2-.6-.4-.4-1.1.2-.7.4-.7 1.8 0m112.4-.4c.2.3-.4.8-.6.5a.5.5 0 010-.4c0-.3.5-.4.6 0m136.2 0c.6.4.7.5.6.8-.6 1-2 .3-1.6-.7.1-.4.1-.4 1 0m-263 .7c-.8.6-1.1.5-.9-.3l.2-.6.4.4.4.5m200.7-.7c-.1.2.2.5.4.4l.2-.4c0-.2-.4-.3-.6 0m24.4 0c0 .3-.5.5-.7.3-.4-.3-.3-.5.2-.5l.5.1m40.6 0c-.3.4 0 .9.6.9 1 0 1.3-.4.8-.7-.4-.3-1.2-.4-1.4-.2m-281.6.2c0 .7-1.3 1-1.4.2 0-.3 0-.3.7-.3l.7.1m57.7.1c0 .1 0 .2-.2.2s-.3 0-.2-.2c.1-.3.4-.3.4 0m89.9.3c-.1.2-.4 0-.4-.3 0-.2 0-.2.2 0 .2 0 .3.2.2.3M94.6 97v.7c-.4.6-.7.8-.7.3 0-.2 0-.6-.2-.8 0-.4.4-.5 1-.2m80 0c-.1.2.2.7.5.7.2 0 .3-.2.3-.5 0-.4-.5-.6-.7-.2m6.7 0c0 .2-.1.3-.3.3-.2 0-.3-.2 0-.4.1-.1.3 0 .3.2m120.2 0c0 .2.2.3.4.4.2 0 .2 0 .2-.3 0-.1-.2-.3-.4-.3s-.2 0-.2.2m-276.5.2v.3c.1.1.6-.2.6-.5 0-.2-.5-.1-.6.2m131 .3c0 .8-.4 1-.8.5-.3-.4-.3-.5 0-.8.5-.5.8-.4.8.3m168-.5c0 .2.4.6.5.5l.1-.4c0-.2-.4-.3-.5 0m-227 .2c.5.4.4.8 0 .8-.3 0-.6-.6-.6-1 0-.1.4 0 .7.2m161-.1c-.3 0-.3.4 0 .7.1.3.6 0 .6-.4s-.2-.5-.6-.3m-40.7.1l-.2.3c0 .2.7 0 .8-.2 0-.2-.2-.2-.6 0m-182.2.2c1 .2 1 .4.3.7h-.6c0-.2-.2-.2-.5-.1-.3 0-.4 0-.4-.4 0-.5 0-.5 1.2-.2m199.2 0c-.7.3-.6.8 0 1.4.8.8 1 .7 1-.4.1-1.1-.2-1.4-1-1m28.2.2c-.7.7-.5 2.3.3 2.5.3 0 .5.2.5.3 0 .2-.8.2-1-.1-.3-.4-.8-.3-1 0-.3.5 0 .9.5.9.4 0 .5 0 .5.5.1 1 1.6 1.5 2.3.6.3-.4 0-1.8-.4-1.7-.2 0-.3 0-.4-.2 0 0 .1-.2.3-.2.2 0 .5-.3.7-.6.9-1.5-1.2-3.2-2.3-2m-211.4 0l.1.1c.3 0 .4.7.2 1l-.4.1c-.5-.2-.8 1.2-.3 1.6l.2.5c0 .3 0 .4.5.4 1 .1 1.4.4 1.1.7l-.3.6c0 .2-.2.3-.5.2l-.7.1c-.5.3-1-.4-.8-1.4 0-.8-.2-1.1-.7-.6-.6.6-.7-.6-.1-1.5.3-.5.4-.8.3-1.3-.1-.7 0-.7.7-.6l.7.2m-10.7.3l-.1.5c-.1 0-.2.2-.1.4 0 .3-.3.7-.7.6-.3-.1-.1-1.5.2-1.7.3-.3.7-.1.7.2m178.8.3v.8l1.2.6 1.3.6c.2-.2-.2-.8-.9-1.4l-.9-1c-.3-.7-.7-.5-.7.4m109.2-.5c-.3.1-.6.2-.8.1-.4 0-.6.3-1.1 1.8-.1.4.6.8 1.2.9.3 0 .7.1 1 .3.7.4 1.4-.5.7-1-.3-.2-.3-.4-.1-.9.3-1.1 0-1.7-1-1.2m-186.7.4c-.2.8-.4 1-.9.5-.2-.2-.5-.3-.7-.3-.5 0-.2-.4.4-.4a3.3 3.3 0 001.3-.3l-.1.5m26.2-.2c0 .2 0 .5.2.7.3.4.3.4 0 .6-.7.5-.6 1.8.3 2 .6 0 .5.5-.1 1.3-1.6 2.1 0 4.5 2.3 3.5l1.2-.2c.4 0 .6-.1.8-.6l.6-.9c.3-.3.3-.5.3-.8l-.2-.8-.6-1.3c-.3-.7-.5-1.1-.4-1.4.1-.5-.1-.5-.7-.1-.3.2-.4.2-.8 0l-.6-.3c-.1 0-.3-.3-.3-.6 0-.6-.5-1-.9-1l-.4-.2c-.2-.3-.7-.2-.7.1m56.6-.1c.2.2.3.8 0 .8-.1 0-.5-.5-.5-.8 0-.3.3-.2.5 0m22.7.8c.1.3 0 .3-.9.4-1.1.1-1.3 0-1.3-.5 0-1 1.5-1 2.2.1m-175.9-.6s0 .3-.3.5c-.5.4-.9 1.2-.7 1.4.2.5 1.4.9 1.8.7 1-.3 1.4.3.8 1.2-.5.8-1 .9-1.2.2-.3-.6-1-1-1.7-1-.5 0-.7-.6-.3-.8.2-.1.1-.2-.1-.4-.3-.2-.4-.5-.4-1.1l-.1-.9h1l1.2.2m166 .2c-.2.5 0 .6.3.5.3-.1.4-1 0-1-.1 0-.3.3-.3.5m83-.2c-.1.2 0 .4 0 .4.3.3.7 0 .7-.3 0-.4-.6-.5-.7 0m-54.3.1c-.4.5-.4 1 .1 1.3.8.3 1.5-.6.8-1.2-.3-.4-.6-.5-1 0m-221 0l-.1.7-.3 1c0 .1 0 .3-.2.3s-.2 0-.2.5c.1.5-.3.6-1 .2-.2-.2 0-.9.3-1 .2 0 .2-.1 0-.6-.2-.8 1.1-1.8 1.5-1.1m194 .1c-1.2.2-1.1.8 0 .8.8 0 1.6-.4 1.4-.8h-1.4m-72.3.3v.4c0 .1 0 .3-.2.5-.2.3-.2.4 0 .6.4.4.5.2.8-.6.3-.9-.3-1.7-.6-1m193.6.2c-.3.4-.2 1.7.1 2 .4.3.8 0 1-.6 0-.5 0-.5.5-.5.4 0 .6 0 .6-.2l-.4-.2c-.1 0-.4-.2-.6-.5-.3-.5-.9-.5-1.2 0m-265.8 0c.3.2-.2.6-.7.6l-.5.2c-.1.2-.2.1-.2-.2 0-.7.8-1 1.4-.6m68.3 0c0 .2-.3.3-.5.2-.1 0-.1-.2 0-.2 0-.2.5-.2.5 0m26.5 0c0 .6.3.8 1.3.8 1.2.1 1.4-.5.3-.7L190 99c-.4-.1-.5 0-.5.2m95 0c-.3.6 0 .9.5.9.6 0 .6-.3.2-.8-.3-.5-.5-.5-.7 0m20.2-.2l.2.2.2-.2c0-.1 0-.2-.2-.2-.1 0-.2 0-.2.2m14.4.3l-.5.3c-.4 0-.6.5-.5.9.1.4 1.7.5 2.2 0l.4-.3-.3-.6c-.4-.7-.9-.8-1.3-.3m-19.7 0c-.2.2 0 .5.2.5.4 0 .6-.4.4-.6h-.6m-43.8.4c0 .4.2 1 .5 1.1.3.1.5-.3.3-.9-.2-.5-.7-.7-.8-.2m45.7-.1l.4.1.3-.1c0-.1-.1-.2-.3-.2-.2 0-.4 0-.4.2m-177.9 0c.3.2.4.6 0 .7-.2 0-.7-.2-.7-.5 0-.2.3-.3.7-.1m32.6.1c.2 0 .3.8 0 .8l-.3-.2h-.5c-.4.2-1-.3-.8-.6 0-.2 1-.2 1.6 0m116.4-.1v.6c0 .3-.2.6-.6.9-1.2 1 0 2 1.5 1.2.8-.4.8-.3.3-1.5s-.8-1.5-1.2-1.2m-233 .3c.2.3.2.5-.3 1l-1 1.6c-.4 1-.9 1.2-1 .5a4 4 0 00-.4-.9c-.3-.7-.3-1 .3-1.3.2 0 .7-.4 1-.6.5-.6 1.2-.7 1.5-.3m-12.8 0c-.3.1-.3.4 0 .4.2 0 .3-.1.3-.3v-.2l-.3.1m113.2.1c.2.2.6.2 1 .2.6 0 .7 0 1 .2.4.5.2.9-.5.9-.4 0-1 0-1.4.2-.7.1-.8.1-1-.2-.8-1 0-2 1-1.3m118.5 0c-1 1.3-1 3 .1 2.1l.5-.2c.3 0 .7-.5.5-.7l-.4.2c-.6.5-.8 0-.5-.9.2-.7.1-.8-.2-.4m-229.2.2c-.8.6-.4 1.5.5 1.8 1.2.2 1.6-1 .6-1.7-.6-.5-.6-.5-1.1 0m85.2 0c0 .1 0 .2.2.2l.1-.4-.1-.2c-.1 0-.2.1-.2.3m185 0c-.3.5-.1 1 .3 1 .6 0 .9-.6.5-1-.4-.2-.5-.2-.8 0m39.5 0v.5c.3.2.7 0 .7-.2 0-.4-.5-.5-.7-.2m-328.6 0c-.3.1-.3.6 0 .9.5.4 1.3-.2 1-.6-.2-.2-.8-.4-1-.3m241.7.4c0 .3 0 .6-.4 1-1.6 2.2-1.4 3.9.3 3.5.8-.1.8 0 .9.2 0 .5.7.6.8.2.1-.2 0-.4-.2-.6-.3-.2-.3-.2.2-.9.8-1 .7-1.9-.6-3.2-.8-.8-1.2-1-1-.2m58.2.2c0 .6.7 1 1.2.9.4-.2.4-.3 0-1-.5-.6-1.2-.6-1.2 0m11.1-.3c-.2.3.2.6.7.5.7 0 .6-.5 0-.6l-.7.1m24 0c-.3.3-.3.8 0 1 .4.1.8-.2.9-.5 0-.4-.5-.7-.8-.4m-303 .3c.2.3.2.3-.1.3a.5.5 0 01-.4-.4c0-.4.3-.3.5 0m240.3 0c0 .1.1.2.3.2a.3.3 0 10-.3-.2m4.4 0c-.5 0-.5.3 0 .6.3.1.4.1.6-.1.4-.6 0-.9-.6-.6m50.5.1c-.2.2-.2.3 0 .5l.3.8c.3.8.7.5.6-.4-.2-1.1-.5-1.4-1-.9m-160.7 0l.1.5c.3.3.7 0 .6-.4a.4.4 0 00-.7 0m90.5 0l.1.7c.3.2.7-.3.6-.6 0-.3-.5-.4-.7-.2m50.6.4c-.2.3-.2.4 0 .6.4 0 .7-.3.4-.6-.1-.1-.2-.1-.4 0m45 .2c-.5.4-.2 1.3.5 1.3s1-1.2.3-1.5c-.4-.2-.4-.2-.8.2m-102.6 0c-.4.5-.2 1 .6 1 .2 0 .3-.6.2-.9-.2-.4-.4-.4-.8 0m-227.6.4l-1 .3c-.7 0-1.2.2-1.4.7-.4.8.3 1.6 1.1 1.1.3-.1.4 0 .9.3.6.5.8.5 1.2 0 .3-.3.3-.6 0-.6-.4 0-.7-.5-.5-.7.2-.1.3 0 .4.2.2.4.5.4.9 0s.3-.5-.2-1.1c-.6-.7-.6-.6-1.4-.2m172 0v.6c-.3.4-.6.2-.6-.4 0-.7.2-.7.5-.2m15.3-.1c-.3.2-.3.3 0 .7.2.6.8.7 1.2.2.8-.8-.2-1.6-1.2-1m16.4 0v.5c.3.2.9-.2.7-.5a.4.4 0 00-.7 0m88 .3c-.3.8.5 1.6 1 1 .4-.3.3-.9 0-1.2-.5-.4-.7-.3-1 .2m5.4-.4c-.3.3-.1 1.4.2 1.4.4 0 .7-.3.7-.8s-.6-.9-1-.6m-234 .3c.1 0 .2.2 0 .2 0 .2-.5 0-.5-.2s.1-.2.5 0m138.3 0c-.3.4-.2.8.2.8.3 0 .4-.2.4-.5 0-.4-.3-.6-.6-.3m-192.5.6c0 .7-.2 1.2-.5 1-.3-.3 0-1.7.2-1.6l.3.6m37.2-.4c-.3.3-.2.4.2.4.3 0 .4 0 .4-.2 0-.4-.3-.5-.6-.2m21.6.1c0 .4 0 .4-.5.2-.4-.2-.3-.5.2-.5.2 0 .3 0 .3.3m46 0c-.2.6 0 1.6.3 1.8.5.5 1.1-.3.7-.8l-.3-.6c.1-.7-.4-1-.7-.3m79.5-.1c0 .3.3.7.6.7.4 0 .3-.8 0-1-.4-.1-.6 0-.6.3m62.7 0c0 .2.1.3.2.3.3 0 .5-.1.4-.4-.2-.4-.6-.3-.6.1m28.5 0s.1.2.3.2c0 0 .2-.1.2-.3 0-.1-.1-.2-.3-.2 0 0-.2 0-.2.2m-62 .1c0 .2.1.5.3.5.2 0 .2-.5 0-.6l-.2.1m51.6 0c-1.4 1.1-.8 3 .9 3 .9 0 1.4-.6 1.4-1.4 0-1.2-1.5-2-2.3-1.5m34-.2c-.3.2-.6 1-.4 1.3.3.4.9.4 1.3 0 .7-.8 0-1.6-.9-1.3m-295.3.3v.4c-.1.3-.4 0-.4-.4 0-.2.3-.3.4 0m3.8.4c0 .3-.1.4-.2.3v-.6c.3-.4.4-.3.2.3m167.2-.4c-.7.4-1.4 1.5-1.5 2.2-.1 1 0 1 1 1.1.6 0 .7.1.8.5 0 .3.2.4.4.5.5 0 .7-.5.3-.8-.2-.2-.2-.2.3-.8.9-.8 1-1.7.1-2.4-.5-.5-.9-.6-1.4-.3m66.3 0a.3.3 0 10.5 0 .3.3 0 00-.5 0m1 .7c-.3.5-.5 1.1-.5 1.3 0 .2-.2.3-.4.3-.8 0-.4.7.5.8l1.3.1c.6.1.8 0 1.2-.2.8-.9.2-2.5-1-2.5l-.5-.4c-.2-.4-.3-.3-.7.6m61.4-.5c-.5.6-.4.8.3.7.6 0 .6 0 .6-.5 0-.6-.4-.7-.9-.2m-268.6 0c-.6.5-.1 1.4.5 1 .6-.2.5-1.2-.2-1.2 0 0-.2 0-.3.2m204-.1c-.8.1-.7 1.2.3 1.4 1 .3 1.4-.3 1-1.2-.2-.3-.3-.4-1.3-.2m-152.7.2c-.7.4-.5 2.7.2 2.4.3 0 1.3-1.4 1.3-1.7 0-.1-.3-.4-.6-.5-.6-.4-.6-.4-.9-.2m32.6 0c-.2.2.2.6.4.4.4-.1.4-.6 0-.6-.2 0-.4 0-.4.2m98.3.2l-.1.6c-.6.7.3 1.8 1 1.2.1-.2.2-.1.5.2.4.5.9.3.8-.3 0-.4-.1-.5-.6-.4-.4 0-.5-.1-1-.8-.6-1-.8-1-.6-.5m43-.2c-1.4.9-.6 3.2 1.1 2.9.6-.1.6 0-.1.6l-.6.6.3.5c.3.5.4.6 1 .6 1.7 0 2.3-2 .7-2.3l-.7-.1.4-.5c.5-1 .4-1.6-.6-2.2-.5-.3-1-.3-1.5 0m31.7 0c-.3.3-.3.3 0 .6.4.5 1 .2 1-.4 0-.5-.6-.6-1-.2m36.7-.1l-.2.3c0 .4.6.5.8.1 0-.3-.3-.6-.6-.4m-114.5.5c-.5.5-.5.5-.3.9.4.6.9.5 1.2-.2.5-1.1 0-1.6-.9-.7m64.4-.2a44.4 44.4 0 00-3 .9c-1.2.1-1.4.3-1.5.8-.2 1.2 0 1.7.4 1.9l.9.5c.7.6 1.3.7 2.9.6 1.2-.2 1.5-.1 1.7 0 .4.4 1.4.4 1.8 0 .3-.2.2-.5-.2-.5-.6 0-.8-1.1-.4-1.8.9-1.2 1-2.3.2-2.4h-.7l-.8-.2c-.3 0-.8 0-1.3.2m-304.6.1c-.3.3-.1 1 .2.9.3 0 .4-.2.4-.5 0-.4-.4-.6-.6-.4m91.5.3c-.2.5.4 1.1.8.8.3-.3.3-.6 0-.9-.5-.3-.5-.3-.8 0m77.3 0c0 .2.4.8.6.6l.1-.5c0-.4-.5-.5-.7-.1m165 0c-.2.4.3.9.6.6.2-.2.1-.8-.2-.8-.2 0-.4 0-.4.2m-286 .1c.3.3.3.7 0 1-.2.4-.2.3-.6-.1-.6-.7-.6-.8-.1-1 .5-.1.5-.1.7.1m58.8 0c-.3.2 0 1 .4 1.2.6.3.7.2.7-.4 0-.7-.6-1.3-1-.9m97.5.1c-.6.3-.6 1-.2 1.3.5.4 2 0 2.3-.5.2-.4-.3-.9-.8-.7l-.6-.1h-.7m11 0c0 .2.1 1.3.3 1.4.2.1 1.2-.6 1.2-.9 0-.4-1.2-.9-1.4-.5m46.6.3c-1.3 1.3-.2 3.2 1.6 2.7.8-.2.8-.3 1-1.6 0-.8 0-1-.2-1a2 2 0 01-.9-.3c-.6-.4-1-.4-1.5.2m12.5-.3c0 .2.2.6.5.6l.1-.4c0-.4-.3-.6-.6-.2m-267.7.2c-.2.3-.1.8.2.8.4 0 .7-.5.6-.8-.2-.3-.5-.3-.8 0m161 0c0 .4.4.7.6.5.2-.1-.1-.6-.4-.7-.1 0-.2 0-.2.3m4.5-.2c-.3.1-.2.7.2.9.6.3 1-.3.5-.8-.2-.2-.3-.3-.7-.1m34.9.1c-.2.4 0 .8.4.8s.5-.3.3-.7c-.1-.4-.6-.4-.7 0m40.3 0c-.2.3-.2.4 0 .8.3.2.5.6.5.7.1.4.6.4.7.1 0-.2-.7-1.8-.9-1.8l-.3.3m-108.4.4c0 .2 0 .4-.2.4-.3.2-.8-.2-.7-.5.2-.3.8-.2.9.1m120.4 0c0 .2 0 .3.2.3s.3-.1.3-.3c0-.2-.1-.3-.3-.3-.1 0-.2.1-.2.3m-117.5 0c0 .2.4.4.6.3.1-.1.2-.2.1-.3-.1-.2-.5-.2-.7 0m133.2 0c-.8.3-1.3 1.6-.8 2.3.4.6 1 .5 1.8-.3 1.2-1.3.5-2.6-1-2m-234.8.1c.3.1.3.5 0 .7-.2 0-.3.3-.3.6 0 .4 0 .4-.4.4-.7 0-.8-.7-.3-1.3.5-.5.5-.6 1-.4m17.6.2c0 .3.2.5.7.5.3 0 .3 0 0-.5-.1-.4-.5-.4-.7 0m112.9 0c-.1.3.2.7.4.4.2-.2 0-.7-.2-.7l-.2.3m-66.8.4c-.7.8-.4 1.4.6 1 1.1-.4 1.8.3 1.3 1.4-.4 1.2-.3 1.6.7 1.7.8.1.8.2.8.5 0 .5.6.7 1 .3.1-.2 0-.3-.1-.5-.5-.5.2-1 1.2-.9.9.1 1.7-.5 1.7-1.3 0-.2 0-.5.2-.7.5-.8-.3-1.4-1-.8-.7.7-2 .6-2.6-.3-.2-.4-.4-.3-.6.2-.3.7-1 .4-1-.5 0-.2-.2-.3-.6-.5-1-.2-1.1-.2-1.6.4m70.2-.3c-.8.4-.6 1.2.2 1 .5 0 .8-.7.4-1-.1-.2-.3-.2-.6 0m-14.3.2l-.5.7c-.3.4-.5.4-1.5.6-2.8.2-4 3.2-1.7 4.2 2.2 1 5-.5 4.8-2.5l.1-1.4c.4-1.4-.4-2.4-1.2-1.6m-31 0c-.3.2-.2.7 0 .8.3.2.7-.3.5-.6-.3-.3-.4-.4-.6-.2m142.6.1c-.6.3-.9 2.2-.4 2.5 1 .6 2.4-1.4 1.6-2.4-.2-.3-.6-.4-1.2 0m-182 0c-.1.2 0 .7.2.7s.3-.2.3-.4c0-.4-.2-.5-.4-.3m31.3.2c-.3.5-.2 1.8.2 1.8s.4 0 .3-.4v-.7c.3-.2.1-.9-.2-.9-.1 0-.2 0-.3.2m-47.9.3c0 .1 0 .3.2.4.3.2.5.2.4-.2 0-.5-.4-.6-.6-.2m70.5 0c0 .2 0 .5.4.5l.4.3c.3.3.5.3.5 0 0-.6-1.1-1.3-1.3-.9m29 0c-.1.4.1.8.4.8.5-.1.5-1 0-1l-.4.3m137.8 0c-.4.2-.5 1-.1 1 .3 0 .8-.5.8-1 0-.4-.2-.4-.7 0m1.8 0v.5c0 .1.5-.3.5-.6s-.3-.2-.5.1m-298.7 0c-.2.3 0 .5.3.5.2 0 .3-.1.3-.3 0-.3-.4-.5-.6-.2m227.2.3c-.3.4-.2 1 .2 1 .3 0 .8-.6.9-1 .1-.6-.5-.6-1 0m-222.4-.2c-.4.4.8 1.5 1.3 1 .3-.2.2-.4-.2-.3-.3 0-.4 0-.5-.3 0-.4-.4-.6-.6-.4m83.8.3c-.3.2-.3.3-.2.6.6 1 1.6 1.2 1.6.2s-.7-1.4-1.4-.8m81.8-.3c-.1.2 0 .4.2.4.1 0 .2 0 .2-.2 0-.3-.2-.3-.4-.2m155.3.2c-.4.3-.2.7.4.7.4 0 .7-.4.4-.7-.3-.3-.4-.3-.8 0m-283.4.3l-.2.8c0 .4-.3.6-.4.1-.1-.4-1.2-.5-1.3 0-.2.3.2.7.5.7l.7.4c.7 1 1.8.2 1.8-1.4 0-1-.8-1.5-1.1-.6m262 0c-.4.5-.3 1 0 1 .4 0 .7-.5.6-1 0-.5-.4-.5-.7 0m-175.8 0c-1 .1-.5 1.4.6 1.4.5 0 .7.3.4.5-.6.5 0 2 .7 2 .3 0 1.4-1 1.4-1.4 0-.7-.5-1-1.1-1l-.6.1v-.5c.2-.4.1-.6 0-1-.3-.3-.5-.4-1.4-.2m-95.1.4c0 .2-.5.4-.6.2v-.3c0-.3.6-.2.6 0m75 0v.3c.2.2.7-.2.7-.4 0-.3-.5-.2-.6 0m53.8 0c-.2.2 0 .5.3.5.2 0 .3-.1.3-.3 0-.4-.3-.5-.6-.3m5.7.5c-.8 1-1 1.4-1 3v2.2c-.3 1.7.9 2 1.4.3l.8-1.3c.7-1 1-2 .9-2.7l-.2-1.1c0-1-1.2-1.3-2-.4m29.4-.4v.4c.3.2.8 0 .7-.3 0-.3-.5-.3-.7 0m-61.5 0c-.1.3 0 .9.4.9.3 0 .4-.5.2-.8-.2-.2-.4-.3-.6 0m17.1 0l-.1.4c.2.2.6 0 .6-.3 0-.4-.2-.4-.5 0m111.6-.1c-.1.1 0 .3.2.5.2.1.4.4.4.6 0 .4.3.5.8.1.5-.3.5-.9 0-.9a.9.9 0 01-.7-.3c-.2-.2-.6-.3-.7 0m56.5 0c-.8.5-.6 1.3.4 1.3.6 0 .7-.1.4-.9-.2-.6-.3-.7-.8-.4m-127.3.3c0 .4.5.6.8.3.3-.3.2-.6-.4-.6-.3 0-.4 0-.4.3m45.8-.2c-1 .4-1.4 1.9-.7 2.6l.4.5.6-.4c1.4-.8 1-3.2-.3-2.7m-40.5.1c-.2.2-.1.6.2 1 .4.3.9.2.9-.3s-.8-1-1-.7m5.3.1c-.4.3-.3 3.3.1 3.5.4 0 .6-.3.6-1.1 0-.4 0-1 .2-1.3.5-.9-.2-1.6-1-1m98.6 0c0 .5.4 1 .8.8.3-.1.3-.8 0-1-.5-.1-.8 0-.8.3m-202.9 0c-.2.1 0 .8.2 1 .4 0 .7-.5.5-.9-.1-.3-.5-.4-.7-.2m58.8.2c-.1.2.2.5.5.5.2 0 .3-.5 0-.6-.3-.3-.4-.2-.5 0m108.6 0c-.2.2-.2.6 0 .6s.5-.6.4-.7l-.4.1m-71 .3c-.2.4.2.9.6.8.4 0 .5-.5.1-.9-.3-.3-.5-.3-.7 0m48.8-.1c-.2.2-.2.9 0 .9l.2-.5c0-.6 0-.6-.2-.4m67.1 1c-1.5 1.6-1.3 2.3.7 2.4l1.3.1.4.7c.2.5.3.7.8.7l.8.2c.4 0 .6-.5.2-.7-.1-.2-.1-.3.1-.7.3-.5 0-1.7-.4-1.7l-1.2-1c-1.3-1.2-1.5-1.2-2.7 0m-291.2-.4l.2 1c.7 1.7.7 1.8.2 2.7-.7 1.1.1 1.6 1 .5.3-.5.4-.5.8-.2.2.2.7.3 1 .2 1.3 0 1-1.1-.6-2.4a.5.5 0 01-.2-.6c0-.4-.2-1-.6-1-.1 0-.4 0-.6-.2-.4-.3-1-.3-1.2 0m43.5.1c0 .3 0 .3.3.3.2 0 .4-.2.4-.3 0-.1-.2-.3-.4-.3s-.3 0-.3.3m38 .5c-.6 1.5 0 2.5 1.4 2.5 1.5 0 1.9-2 .6-2.7l-.8-.5c-.4-.4-.7-.1-1.2.7m-64.3-.3c0 .5.5.8.8.5.3-.3 0-.8-.5-.8-.3 0-.4 0-.3.3m205 0c-.3.3-.3.9 0 1 .2.2.8-.5.7-1 0-.4-.3-.4-.7 0m-239.9.2c-.2.3 0 .4.4.4.2 0 .3 0 .2-.2 0-.4-.3-.5-.6-.2m131.2.1c0 .3.2.4.4.5.4 0 .4 0 .4-.4 0-.2-.2-.4-.5-.4s-.4 0-.3.3m3.6-.2l.4.2c.2 0 .3 0 .3-.2l-.3-.1-.4.1m123 0c-.2.4-.2.8.2 1 .5.3 1.3.2 1.5 0 .2-.3 0-.6-.2-.6s-.4-.1-.5-.3a.6.6 0 00-1 0m-252 .4c0 .3.4.2.5-.1 0-.1 0-.2-.2-.2-.1 0-.3.1-.3.3m279-.2c-.2.2-.1.7.1.9.3.3 1 0 1-.3 0-.5-.8-1-1.1-.6m-283 .3c-.3.6-.2 1 .2 1.1.6.2 1-.3.7-1 0-.4-.8-.4-1-.1m179.2.1c-.1.4.1.7.5.6.2 0 .3-.2.3-.4 0-.6-.6-.7-.8-.2m37.1-.1c-.4.4.1 1.2.6.8.3-.3.3-.8 0-1-.4 0-.3 0-.6.2m6.5 0c0 .4.4 1 .6 1.2.4.1.5-.4.2-1-.3-.4-.8-.6-.8-.2m63.2-.1c-.6.2 0 .9.9.9.6 0 .7-.4.2-.7-.3-.3-.7-.4-1-.2m-238 .2c0 .2.5.3.6.2v-.2c-.1-.2-.6-.2-.6 0m122.6.1c-.3.4-.3.6.1 1 .3.3.3.4.2.7-.2.1-.2.3 0 .4 0 .1.2 0 .4-.4.1-.3.3-.7.5-.8.3-.3.3-.6-.1-1-.5-.2-.7-.2-1 .1m-159 .2c0 .2 0 .4-.2.5-.2.1-.5-.2-.4-.5.1-.4.6-.4.6 0m12.3.5c0 .8-.4 1.4-1 1.4-.4 0 .1-1.8.6-2 .4-.3.4-.2.4.6m33.3-.4l-.7.8c0 .2-.2.5-.4.6l-.4.4.7.7 1 1c.5.2.5.3.4.8-.1.8.2 1 .9.5l1-.4c.6 0 1.4-.3 2-.9.7-.5.7-.5.8.4 0 .7 0 .8-.5 1.2-.5.5-.5.5-.2.8.2.2.3.2.5 0h.7c.5 0 .6-.1.2-.5-.4-.3-.3-.6.2-.9.8-.4 1.4-3 .7-3-.2 0-.4.1-.5.3-.6 1.2-1.4 1.2-1 0 .3-.7 0-1.7-.6-1.8l-3-.3c-1-.1-1.2-.1-1.8.3m85.6-.1c-.4.3 0 1.1.4 1.2.6 0 .9-.3.9-.8 0-.7-.9-1-1.3-.4m-38.4.3c0 .6.3.8.6.6.4-.3.3-1-.2-1-.3 0-.4 0-.4.4m28.3-.2c-.2.4.2.8.7.8.4 0 .7-.4.4-.8-.3-.3-1-.3-1.1 0m97 0c-.2.4 0 .8.3.7l.2-.4c0-.5-.4-.7-.5-.3m71.6.1c0 .3 0 .5.3.7.8.7 1.5.1.8-.6-.4-.5-1-.5-1 0m-193.7 0c-.2.4-.1.6.2.6.4 0 .6-.2.4-.6-.1-.3-.5-.3-.6 0m-70.6 0c0 .2.2.2.3.2l.3-.1-.4-.2s-.2 0-.2.2m54 .3c-1 .9-.6 2.1.7 2.6.7.2 1 .2 1.5-.4 1.3-1.4-.8-3.6-2.2-2.2m9.5 0c-.6.6-.6 1.7-.2 2.3 1 1 2.4-1.3 1.5-2.4-.4-.5-.7-.5-1.3.1m15.7-.3c-.1.2.4 1 .7 1 .3 0 .5-.5.3-.9-.2-.3-.8-.4-1-.1m124 .2c-.3.3-.2.5.2.7.6.3 1 0 .9-.6-.2-.4-.8-.5-1.1-.1m13.7 0c-.1.4.4.8 1 .7.6 0 .7-.3.3-.7-.3-.3-1.2-.3-1.3 0m-188.6.1c-.3.2-.3.2 0 .5.5.6 1.4.2.9-.4-.3-.3-.5-.3-1 0m102.2-.2c-.2.3 0 2.1.2 2.1.3 0 .6-.6.5-1.4 0-.6-.3-1-.7-.7m10 .1c-.6.6 0 1.2.8.8.5-.2.4-.9-.2-1l-.6.2m31.2 0v.5c.3.4.2.7-.2.7-.8 0-1 .9-.3 1.4l.4.5v.4c.2 0 .3-.1.3-.4 0-.3.2-.5.6-.7.6-.2.6-.3.5-.9a8 8 0 010-.9c0-.6-1-1-1.3-.5m-114.2.3c-.2.5.2.7.7.5.5-.3.5-.7 0-.8-.5-.1-.6-.1-.7.3m1.5-.2c-.2.3.4.7.7.4.3-.3.2-.6-.3-.6-.1 0-.3 0-.4.2m149.4 0c-.2.1-.1.8.1 1 .4.3.8 0 .8-.4 0-.6-.6-1-1-.7m-127 .3v.6c0 .4.4.4.4 0 .1-.4-.1-.7-.3-.6m-115.7.2c-.1.2.2.7.5.7.2 0 .4-.4.3-.6-.1-.2-.6-.3-.8 0m79.3 0c-.9.3-1 2.1-.2 2.1.6 0 .9-.4 1-1.9 0-.3-.4-.5-.8-.3m30.6 0c-.9.4-1 2.3-.2 2.8 1 .8 2.3-1.5 1.3-2.5-.5-.4-.5-.5-1-.2m111.6.1c-.4.3-.4.4-.2.6.3.3.8.3 1-.2.1-.5-.4-.8-.8-.4m10.5 0c-.6.7 0 1.2 1 .8.8-.3.9-1 .1-1h-.7l-.4.1m49 .2c-.4.5-.5 1-.1 1 .3 0 1-.9.9-1.1-.2-.4-.5-.3-.8.1m-26.5 0c-.4.5.3 1.4.9 1.2.3-.2.3-.8 0-1.2-.4-.3-.7-.3-1 0m-257.9.2c-1.8.7-2 3.4 0 3.2.7-.1.8 0 1.1.3.3.3.5.4.8.3l1 .1c1 .4.9-.7-.3-2l-.6-1c-.2-1-1-1.3-2-.9m292.3 0l.2.5c.3.3 1 0 1-.4-.1-.4-1.2-.5-1.2-.2m-261.7.1c-.2.2-.1.4.2.4.2 0 .3 0 .3-.2s-.4-.3-.5-.2m288.7 0c-.3.2-.2.9 0 1 .4.4.9 0 .8-.6 0-.4-.6-.7-.8-.4m-202 .5c-.2.5 0 1.1.2 1 .3 0 .7-.9.5-1.2-.1-.4-.5-.3-.7.2m88.1-.3c-.2.2 0 .6.3.5.2 0 .3-.2.3-.3 0-.3-.4-.4-.6-.2m47.3.4c-.5.6-.5.8 0 .8.3 0 .8-.5.8-.9 0-.5-.3-.4-.8 0m-102.5 0c0 .3.3.5.6.3l.2-.3c0-.3-.6-.3-.8 0m140.3.2c-.5.2 0 1.2.6 1.2.5 0 .5-1 0-1.2l-.3-.1h-.3m-204.5.3c-.3.3-.2.8 0 1 .3 0 .8-.3.8-.6s-.6-.6-.8-.4m84.2 1c.2 1.6.6 1.9.8.4.2-.8-.1-1.6-.6-1.6-.2 0-.3.2-.2 1.2m134.3-1v.3c.2.1.6 0 .6-.3 0-.2-.4-.2-.6 0m-227.3.4c-.2.3-.1.8.3 1v.6c0 .5 0 .6.2.4l.3-.5.3-.5c.4-.4.4-.9 0-1.2-.4-.3-.8-.2-1 .2m124.6-.2c-.2.3 0 .6.3.6s.4-.3.3-.6c0-.3-.5-.3-.6 0m-78.3.2c-.2.2-.3.4-.2.7 0 .2 0 .4-.2.5-.3 0-.3.8 0 1 .5.4.8.1.7-.5 0-.5 0-.7.3-1 .3-.2.3-.3.2-.5-.3-.4-.5-.5-.8-.2m137 0c-.2.2.2.8.5.7.4 0 .7-.6.4-.8-.4-.2-.8-.2-1 0m-209 .1c-.1.2 0 .7.1.9.3.1.8-.4.6-.7 0-.3-.4-.4-.6-.2m24.3.1c-.2.3 0 .4.3.2v-.3l-.3.1m108.5.2c-.2.1-.3.4-.2.5.1.4.9.4 1.1 0 .4-.8-.3-1.2-1-.5m74.1-.1c-.3.3-.3.6 0 .9.3.3.9 0 .9-.5s-.6-.7-.9-.4m-237.4.3c.1.3.5.3.5 0l-.3-.2c-.1 0-.2 0-.2.2m28.8 0c-.4.4 0 1.4.5 1.1.4-.2.5-.6.3-1s-.5-.4-.8-.1m184.4 0c-.6.5.3 1 1.2.5.3-.2.4-.3.2-.5-.2-.3-1.2-.3-1.4 0m-204 0c-1.1.3-.5 1.7.7 1.6.8 0 1-.6.5-1.3-.3-.4-.4-.4-1.2-.2m2.2 0c-.2.1 0 .3.4.3.2 0 .4.2.6.4.3.4.7.3.7-.2s-1.3-1-1.7-.6m23.3 0c-.2.3 0 .6.3.6.2 0 .3 0 .3-.3s-.4-.4-.6-.3m184.8.1c-.2.1-.2.2 0 .5.4.3.5.4.7.2.7-.6 0-1.2-.7-.7m78 .1c-.7.7-.2 1.4.4 1 .4-.3.5-.8.2-1-.3-.3-.4-.3-.7 0m-314 .3l.3.3c.3 0 .2-.4 0-.5-.2 0-.2 0-.2.2m64.3.2c0 .4.5.7.8.4.3-.4 0-.8-.4-.8-.3 0-.4 0-.4.4m-57.1 0c-.6.5-.1 1.3.6 1.1.4 0 .5 0 .7.3 0 .2.3.3.6.3.5 0 .5-.2 0-.5-.3-.1-.6-.5-.7-.8-.2-.6-.8-.9-1.2-.5m60.4.1c0 .4.5.7.8.4.2-.2 0-.7-.4-.7-.2 0-.4.1-.4.3m16.8-.2c-.2.3 0 .8.2.8.4 0 .6-.4.3-.7-.2-.2-.3-.2-.5 0m29 .1c-.2.5.2.9.8.9 1 0 1.3-.9.4-1-.8-.2-1-.2-1.1.1m176.5.2v.3c.2.2.5 0 .5-.4 0-.3-.4-.3-.5 0m-266.3.4c-.2.4 0 .8.4.8.5 0 .8-.4.6-.8 0-.3-.9-.4-1 0m263.4-.2c-.2.2-.2.7 0 .8.2.2.7-.3.7-.6s-.5-.4-.7-.2m-254.7.2c-.2.2-.1.6.2.5.2 0 .3-.1.3-.3 0-.2-.3-.4-.5-.2m153 .3c-.1.4-.1.5.1.7.3.3.6.2.6-.3 0-.7-.4-1-.7-.4m13-.2c-.2.2 0 .5.3.5.2 0 .3-.2.2-.3 0-.3-.4-.5-.5-.2m-129.7.2l.1.6c.4.3.9.1.8-.4 0-.4-.7-.6-1-.2m42.1-.1c-.8 0-1 .2-.8.8.1.5.5.5 1.2 0 .9-.5.7-.9-.4-.8m99 0c-.2.2 0 .6.2.5.2 0 .3-.2.3-.3 0-.3-.3-.4-.5-.2m29.2.5l-.1.4c0 .4 0 .4.3 0 .2-.1.2-.3.1-.4h-.3M82 115c0 .4.3 1.1.7 1.2.3 0 .9-1 .7-1.3-.2-.3-1.2-.2-1.4.1m184.2 0c-.2.5-.3 1.4 0 1.4.2 0 .6-.7.6-1 0-.5-.4-.7-.6-.3m-224-.1c-.3.2-.2.7 0 .9.5.4 1.2 0 1-.5-.2-.4-.8-.6-1-.4m23 .2c0 .3.6 1 .8.8.3-.2.2-.5-.3-.8-.5-.2-.5-.2-.5 0m126.6 0c-.1.2.3.6.5.5l.2-.5c0-.4-.6-.4-.7 0m104 0v.3c0 .2.4 0 .4-.4 0-.3-.4-.3-.5 0m-40.7.2c-.3.3 0 1.1.4 1.1l.4-.4c.4-.7-.2-1.3-.8-.7m37.6 0c-.2.4.2.7.5.5.4-.3.4-.6 0-.7-.3 0-.4 0-.5.2m-135.4.3v.5c.2.2.6 0 .6-.4s-.4-.4-.6 0m11.5-.1c-.4.4-.2 1 .2 1 .7 0 1-.5.5-1-.3-.3-.4-.3-.7 0m110 0c-.1.3 0 1 .2 1.2.4.3.8 0 .8-.5s-.6-1-1-.6m61.9 0c-.1.2.3.6.5.4v-.3c0-.3-.4-.3-.5 0m3.4 0c-.6.6.2 1.7 1 1.1.4-.4.1-1.3-.5-1.3-.1 0-.4 0-.5.2m-191 .1c-.3.2-.3.2 0 .5.3.4.6.4.8 0 .3-.6-.2-.9-.9-.5m120.9.1c-.2.2-.2.4 0 .7.2.3.7 0 .7-.5 0-.3-.5-.4-.7-.2m-127 .5c-.4.3-.4.7.1.8.7.1 1.4-.5 1-.8-.4-.3-.6-.3-1 0m-113.4.2c-.3.6.2 1 .6.5.3-.3.1-.8-.2-.8l-.4.3m38.4.1c-.5.4-.4 1.3.2 1.3.4 0 1.5-.7 1.6-1 .3-.7-1-1-1.8-.3m-27.6 0c0 .5.6 1.1 1 1 .4 0 .5-.7 0-1-.4-.3-1-.3-1 0m-7.6.6c-.3.3-.2.7.1.7.3 0 .4-.1.4-.4 0-.4-.3-.5-.5-.3m119.2.3v.3c.1.2.4 0 .4-.4 0-.3-.3-.3-.4 0m-66.5.4c-.1.6 0 .9.5.9.4 0 .4 0 .4-.5 0-.8-.7-1.2-.9-.4m6.1 0c-.6.3-.4 1.3.3 1.4.3 0 .5.2.5.5 0 .2.1.3.3.3v-.3-1c0-.5 0-.7-.3-.8-.3-.2-.3-.2-.8 0m-43 .3c-.3.4-.1.9.2.7.2 0 .3-.3.3-.6 0-.5 0-.5-.4-.1m-6.4 0c-.3.1-.2.7.1.7.3 0 .4-.5.3-.7h-.4m33.4 0c-.1.5 0 .8.4.8.2 0 .3 0 .4-.2.1-.4 0-.8-.4-.8-.2 0-.3.1-.4.3m66.2.4c-.2.3-.3 1.3-.1 1.4.2.2.6-.3.6-.8 0-.4-.4-.9-.5-.6m-104 .2c-.6.5 0 2 .7 2 .6 0 1.2-1.3.9-1.8-.2-.4-1.4-.5-1.7-.2m22-.1c-.3.2-.2.7 0 .8.5.2.8 0 .8-.5 0-.3-.6-.5-.9-.3m89.8.2c-.1.3 0 .7.3.7s.5-.4.3-.8c0-.3-.5-.3-.6 0m10.6.2c-.4.8.2 1.2.7.7.4-.4.3-1-.2-1-.2-.1-.4 0-.5.3m49.6 0c-.2.4 0 1 .4 1 .2 0 .4-.2.5-.4.2-.4 0-1-.5-1-.2 0-.4.2-.4.3m-57.6 0c-.4.5-.1 1.4.4 1.4s.6-.7.4-1.1c-.3-.5-.5-.5-.8-.2m-99 .6c-.2.3-.1.5.1.6.5.4.8.2.8-.4 0-.6-.8-.8-1-.2m149 0c-.1.4.2.8.4.6.3-.2.2-.8 0-.8s-.4.2-.4.3m-144 .4c-.1.2-.4.3-.6.3-.3 0-.3.1-.3.7 0 .7.7 1 1 .3.1-.1.3-.3.5-.3.4 0 .5-.4.3-1-.2-.4-.6-.5-1 0m41 1.4c-.2.2-.2.9 0 1 .3.2.8 0 1-.3.2-.7-.4-1.2-1-.7m-43.6.5c-.3.3-.2 1 0 1 .4.2 1-.5.9-.9-.2-.4-.6-.4-1 0m15 .7c-.2.4 0 .9.4.9.5 0 .8-.5.5-.8-.3-.4-.6-.4-.8 0m-32.6.3c-.3.3-.3.6.1.8.4.2.9-.2.7-.6-.1-.4-.5-.5-.8-.2m48.2 1.6c-.2.4.1 1 .5 1s.7-.8.4-1.1c-.3-.4-.8-.3-1 0m-7.5.8c-.3.3-.1.6.2.6.2 0 .3-.2.3-.4 0-.5-.2-.6-.5-.2m-21 .2c-.2.5.1 1 .5 1 .5 0 .7-.4.5-1-.2-.3-.8-.4-1 0m-23.7.2c-.2.4 0 .5.4.5.2 0 .3 0 .2-.3 0-.5-.4-.6-.6-.2"
    fill="#41b773"/></g>
</svg>
